<svg version="1.1" width="73" height="42.8" viewBox="0 0 73 42.8" xmlns="http://www.w3.org/2000/svg" xmlns:xlink="http://www.w3.org/1999/xlink" overflow="hidden"><defs></defs><path d=" M 72.3 12.5 L 72.2 12.6 L 72 12.5 L 72.1 12.1 L 71.6 11.9 L 71.5 11.8 L 71.6 11.8 L 71.5 11.7 L 71.6 11.6 L 71.6 11.3 L 71.5 11.2 L 71.4 11 L 71.3 10.9 L 71.4 10.8 L 71.7 9.2 L 71.7 8.8 L 71.2 8.3 L 71 8.4 L 70.7 8.3 L 70.4 8.3 L 70.3 8.2 L 70 8.1 L 69.8 8.3 L 69.7 8.6 L 69.3 9.1 L 69 9.3 L 69 9.6 L 68.7 9.7 L 68.7 10 L 68.6 10.2 L 68.3 10.6 L 68 10.7 L 67.7 11 L 67.6 11.3 L 67.5 11.3 L 67 11.3 L 66.9 11.3 L 66.8 11.4 L 66.7 11.4 L 66.4 11.7 L 62.6 11.7 L 62 11.7 L 61.9 12 L 61.6 12.1 L 61.3 12.4 L 60.8 12.9 L 60.4 12.9 L 60.1 13.1 L 59 13.9 L 56.6 14.6 L 56.5 15.2 L 56 15.3 L 51.4 16.6 L 51.3 16.2 L 51.6 15.9 L 52 15.6 L 52.2 15.3 L 52.3 15 L 52.4 14.7 L 52.5 13.1 L 51.6 9.2 L 50.8 8.6 L 50.4 8.2 L 45.3 5.9 L 45 5.7 L 44.7 5.6 L 44.6 5.5 L 44 5.5 L 43.9 5.3 L 43.8 5.2 L 43.5 5.3 L 43.1 5.3 L 42.8 5.3 L 42.7 5 L 42.4 4.9 L 41.9 4.8 L 41.8 4.5 L 41.7 4.5 L 41.3 4.3 L 41 4.3 L 40.9 4.3 L 40.7 4.3 L 40.6 4.4 L 40.5 4.2 L 40.2 4.2 L 40.2 4 L 39.9 3.9 L 39.8 3.9 L 39.7 3.8 L 39.7 3.6 L 39.3 3.4 L 39 3.4 L 38.8 3.4 L 8 0.4 L 8 2.3 C 8 2.4 6.4 1.9 6.4 1.9 C 6.4 1.9 6.1 3.3 6.3 3.4 C 6.5 3.6 8.5 5.6 8.5 5.6 L 7.8 6.4 L 6.3 10.1 L 2.8 14.2 L 2.2 16.4 L 0.5 18.3 L 0.8 19.7 C 0.8 19.7 0.3 20.7 0.4 20.8 C 0.5 20.9 1 25.7 1.2 27 L 1.4 27 L 1.7 27.1 L 1.8 27.1 L 2.1 27.1 L 2.2 27.3 L 2.2 27.6 L 2.6 27.7 L 2.8 27.7 L 3.1 27.8 L 3.3 28 L 3.3 28.3 L 3.4 28.3 L 3.7 28.3 L 3.9 28.5 L 4.4 29.3 L 4.4 29.6 L 4.3 29.9 L 4.4 30.2 L 7.6 30 L 7.7 30.1 L 7.6 30.2 L 12.1 32.1 L 15.9 32.2 L 15.9 31.7 L 18 31.8 L 18.3 31.9 L 18.6 32.1 L 18.7 32.2 L 18.7 32.3 L 18.8 32.3 L 18.9 32.6 L 18.9 32.7 L 19 32.7 L 19.3 32.9 L 19.2 33 L 19.5 33.1 L 19.6 33.2 L 19.7 33.3 L 19.7 33.6 L 19.8 33.7 L 19.9 33.8 L 20 33.9 L 20 34.2 L 19.9 34.2 L 19.8 34.2 L 19.8 34.3 L 20 34.6 L 20.1 34.8 L 20.2 34.9 L 20.2 35 L 20.3 35.1 L 20.4 35.1 L 20.5 35.1 L 20.5 35.2 L 20.5 35.3 L 20.6 35.3 L 20.7 35.3 L 21 35.4 L 21.1 35.5 L 21.2 35.6 L 21.5 35.7 L 21.6 35.7 L 21.7 35.8 L 21.8 35.7 L 21.8 35.6 L 22.1 35.5 L 22.2 35.5 L 22.2 35.4 L 22.2 35.3 L 22.5 34.9 L 22.6 34.8 L 22.7 34.7 L 22.8 34.7 L 22.8 34.8 L 22.9 34.8 L 23 34.6 L 23.1 34.6 L 23.4 34.7 L 23.6 34.6 L 23.7 34.7 L 24 34.7 L 24.1 34.8 L 24.2 34.9 L 24.4 35.2 L 24.7 35.5 L 24.7 35.8 L 24.8 35.9 L 24.8 36 L 24.8 36.4 L 24.9 36.4 L 25 36.6 L 25.1 37 L 25.2 37.1 L 25.3 37.2 L 25.4 37.3 L 25.5 37.5 L 25.6 37.8 L 25.7 37.9 L 25.7 38.2 L 25.7 38.4 L 25.7 38.5 L 26 39.3 L 26 39.6 L 26.1 39.7 L 26.2 39.8 L 26.5 39.8 L 26.6 39.8 L 26.9 40.1 L 27.2 40.2 L 27.4 40.3 C 27.4 39.6 27.5 38.6 27.5 38.6 L 28.4 38 L 28.4 37.6 L 28.5 37.6 L 28.8 37.3 L 28.7 37.2 L 29 36.8 L 29.1 36.9 L 29.3 36.8 L 29.3 36.4 L 29.4 36.5 L 29.7 36.5 L 29.6 36.4 L 29.9 36.2 L 29.9 37 L 30 36.9 L 30.2 37.1 L 30 37.2 L 30.2 37.2 L 31 37 L 31.3 37 L 31.8 36.8 L 32.1 36.4 L 32.4 36.4 L 32.5 36.3 L 32.5 36 L 32.5 35.8 L 32.4 35.4 L 32.5 35.5 L 32.6 35.5 L 32.8 35.4 L 32.8 35.1 L 32.9 35.5 L 32.7 35.6 L 32.8 35.9 L 32.7 36.1 L 33 36 L 33.1 35.9 L 33.2 35.7 L 33.3 35.7 L 34.4 35 L 36.8 35.4 L 37.4 36 L 38.9 35.8 L 39.3 35.4 L 39.3 35.4 L 39.3 35.3 L 39.2 35.3 L 39.1 35.4 L 38.8 35.5 L 38.8 35.2 L 39.1 35.1 L 39.6 34.9 L 39.7 34.8 L 40 34.8 L 40.5 34.3 L 41.3 34.4 L 41.4 34.2 L 41.7 34.3 L 41.6 34.4 L 41.6 34.4 L 42.4 34.5 L 44.2 34.1 L 45.3 35.4 L 47 34.7 L 47.9 35.7 L 48.4 36.3 L 48.4 37.3 L 48 38.3 L 48 38.4 L 48.1 38.3 L 48.2 38.4 L 48.2 38.7 L 48 38.9 L 48.2 39.7 L 48.2 39.7 L 48.2 39.8 L 48.2 39.9 L 48.3 39.9 L 48.3 40.1 L 48.4 40 L 48.4 39.9 L 48.5 39.9 L 48.8 39.9 L 48.5 40 L 48.5 40.2 L 48.4 40.3 L 48.4 40.4 L 48.7 40.7 L 48.7 40.9 L 48.7 41.2 L 48.9 41.4 L 49 41.4 L 49.1 41.5 L 49.1 41.7 L 49.2 41.8 L 49.4 41.9 L 49.3 41.9 L 49.3 41.9 L 49.4 42 L 49.5 42.1 L 50.1 42.3 L 51.1 39.7 L 50.9 37.3 L 50.5 35.3 L 50.5 33.9 L 53 30.9 L 56.2 28.6 L 58.7 27.2 L 60.9 24.8 L 60.8 22.5 L 61.8 22.3 L 62.7 20.3 L 63.7 20.4 L 65.6 18.1 L 68.7 17 L 70.6 16.6 L 71.2 15.9 L 70.5 15.3 L 72 13.1 L 72.2 12.8 L 72.1 12.8 L 72.2 12.8 L 72.2 12.7 L 72.3 12.5 L 72.3 12.5 Z" stroke="#FFFFFF" stroke-width="0.7777" stroke-linejoin="round" stroke-miterlimit="10" stroke-dasharray="" stroke-dashoffset="1" stroke-opacity="1" fill="#549E39" fill-opacity="1"/></svg>