<svg version="1.1" width="426.3" height="211.2" viewBox="0 0 426.3 211.2" xmlns="http://www.w3.org/2000/svg" xmlns:xlink="http://www.w3.org/1999/xlink" overflow="hidden"><defs></defs><g><path d=" M 143.1 132.5 L 143.1 132.5 C 143.1 132.5 141.2 132.1 141.1 131.9 C 141 131.7 137.8 128.8 137.7 128.9 C 137.6 129 136.3 127.6 136.2 128 C 136 128.4 133.6 128.4 133.6 128.4 L 131 127.8 C 131 127.8 129.9 128.6 130.1 128.3 C 130.3 128 130.2 126.1 130.1 126.4 C 130 126.7 126.1 124.7 126.1 124.7 L 124.7 125.9 L 124.7 124.4 L 122.6 123.1 L 122.8 121.4 L 121.8 120.6 C 121.8 120.6 121.6 120.8 121.6 120.7 C 121.5 120.5 121 117.4 121 117.4 L 118 114.9 L 114.3 114.7 L 111 112.9 L 110.3 111.2 C 110.3 111.2 108.4 110.3 108.4 110.1 C 108.4 109.9 107.8 110 107.7 109.9 C 107.5 109.8 107.6 109 107.6 109 L 106.7 108.3 L 106.4 108.1 L 105.6 107.9 L 105.1 107.2 C 105.1 107.2 106.8 106.4 106.7 106.5 C 106.5 106.6 102.8 107.1 102.8 107.1 L 102.4 107.8 L 100.7 106.9 L 97.8 106.7 C 97.8 106.7 95.7 105.9 95.8 105.6 C 95.9 105.4 95.1 104.5 95.1 104.5 C 95.1 104.5 94.6 105.6 94.5 105.8 C 94.4 105.9 92.9 107.2 92.9 107.2 L 93 109 L 92 107.9 L 92.7 106.9 L 92.7 105.5 C 92.7 105.3 93.6 104.9 93.6 104.9 L 93.2 104.1 C 93.2 104.1 92.1 104.4 92.1 104.6 C 92.1 104.8 90.7 105.6 90.7 105.6 L 89 106.3 L 88.2 106.3 C 88.2 106.3 87.4 107.6 87.2 107.6 C 87 107.7 87.1 108.8 87.1 108.8 C 87.1 108.8 85.2 110.9 85.1 110.7 C 85 110.5 83 108.8 83 108.8 L 80.6 109.1 L 79.2 109.8 L 77.5 108.7 L 76.2 106.7 L 76.3 104.3 L 77 101.7 L 77.3 100 L 75.5 98.7 C 75.5 98.7 71.9 99 71.9 98.8 C 71.9 98.6 69.9 98.9 70 98.7 C 70.1 98.5 70.7 97.4 70.7 97.2 C 70.7 97 71.2 95.6 71.2 95.6 L 72 94 L 73 91 L 73.6 90 L 70.6 89.8 L 68.8 90.5 L 67.8 93.5 L 62.7 94.9 L 61.4 93.9 C 61.4 93.9 61.3 94.4 61.3 94.1 C 61.4 93.8 59.7 91.7 59.7 91.7 L 59 88.9 C 59 88.9 61 82.9 61 83 C 60.9 83.1 61.1 80.8 61.1 80.8 L 66 77.6 L 66.1 77.6 L 66.1 77.6 L 66 77.6 L 66.1 77.6 L 66.1 77.6 L 66.3 77.5 L 67.5 76.7 L 69.9 77.1 L 70.5 77.7 L 72 77.5 L 72.4 77.1 L 72.4 77.1 L 73 76.5 L 73 76.5 L 73.5 76 L 74.3 76.1 L 74.3 76.1 L 74.5 76.1 L 75.4 76.2 L 77.2 75.8 L 77.5 76.2 L 77.4 76.2 L 77.3 76.3 L 77.5 76.3 L 77.6 76.3 L 77.6 76.3 L 78.3 77.1 L 80 76.4 L 80.9 77.4 L 81.4 78 L 81.4 79 L 81 80 L 81.1 80.3 L 81.1 80.5 L 81.1 80.5 L 81.2 81.1 L 81.1 80.5 L 81 80.6 L 81 80.9 L 81 81 L 81.3 81.3 L 81.3 81.4 L 81.3 81.4 L 81.3 81.4 L 81.3 81.5 L 81.3 81.5 L 81.4 82.2 L 81.9 82.9 L 81.9 82.9 L 82.1 83.1 L 82.1 83.1 L 82.2 83.3 L 82.3 83.4 L 82.3 83.4 L 82.4 83.4 L 82.4 83.3 L 82.4 83.4 L 82.4 83.4 L 82.5 83.5 L 82.5 83.5 L 82.5 83.5 L 82.5 83.5 L 82.5 83.5 L 82.6 83.5 L 82.7 83.7 L 83.5 84 L 84.5 81.4 L 84.3 79 L 83.9 77 L 83.9 75.6 L 86.4 72.6 L 89.6 70.3 L 92.1 68.9 L 94.3 66.5 L 94 64.1 L 95 63.9 L 95.9 61.9 L 96.9 62 L 98.8 59.7 L 101.9 58.6 L 103.8 58.2 L 104.4 57.5 L 103.7 56.9 L 105.2 54.7 L 109.9 52.8 L 112.8 52 L 110.5 53.5 L 111 54.6 L 112.7 54.1 L 114 53.3 L 117.3 52.4 C 117.3 52.4 118.1 51.1 118 51.4 C 117.9 51.7 119.7 51.1 119.7 51.1 L 119.3 50.4 L 119.4 49.4 L 118.4 49.8 L 117 51.4 L 114.7 51.3 L 113.6 49.7 L 114.6 48.3 C 114.6 48.3 115.6 46.3 115.6 46.4 C 115.5 46.5 114 45.9 114 45.9 L 111.7 46.7 C 111.5 46.7 109.3 48 109.3 47.8 C 109.4 47.6 108.2 48.5 108.2 48.5 L 111.2 46.1 L 112.5 45.9 L 113.9 44.6 L 120.8 44.6 L 123.1 44.1 L 126.2 42.4 L 126.4 42.7 L 125.1 44 L 123.5 45.7 L 121.9 47.4 L 121.1 48.4 L 123.6 48.5 C 123.6 48.5 125.5 48.5 125.7 48.5 C 125.9 48.4 126 49.3 126 49.3 L 127 48.6 L 127.5 50 L 129.3 48.6 L 128.8 47 L 129.3 45.6 L 127.2 45.7 L 127.2 44.9 C 127.2 44.9 126.4 44 126.4 44.1 C 126.3 44.2 127.6 43.1 127.5 43.2 C 127.4 43.3 127 42.6 127 42.6 L 128.4 40.8 L 127.7 38.8 L 127.5 37.8 L 125.6 36.9 L 124.9 36 L 124.1 35.3 L 124.8 33.7 L 124.5 32.6 C 124.5 32.6 124 28.9 123.9 29 C 123.8 29.1 121.4 31 121.4 31 L 118.9 32.3 L 117.6 31.2 L 117.7 29.7 L 118.8 28.6 L 116.9 28 L 116.8 27.5 C 116.8 27.5 115.1 25.8 115 25.9 C 114.9 26 114.5 26.4 114.5 26.4 L 110.6 26 L 109.2 28.4 L 108.9 29.7 C 108.9 29.7 106.7 31.9 106.5 32 C 106.7 32 107.7 33 107.7 33 L 106.8 35.1 L 103.4 37.1 L 101.7 37.3 C 101.7 37.3 100.7 41 100.7 41.2 C 100.8 41.4 99.3 42.1 99.3 42.1 L 98.3 42.8 L 97.9 41.5 C 97.9 41.5 97.4 40.5 97.3 40.2 C 97.6 40.3 98.5 40.4 98.5 40.4 L 98.7 39.6 L 97.7 39.7 L 98.1 38.3 L 99 36.8 L 95.9 36.6 L 95 36 L 93.4 35.8 L 93.3 35.1 L 92.2 34.4 L 90.9 33.8 L 89.5 34 L 89.4 32.7 L 89.8 31.5 L 88.4 31.3 C 88.4 31.3 90.9 28.7 90.9 28.8 C 90.8 28.9 97.9 25.3 97.9 25.3 L 98.7 24.4 L 100.1 24.3 L 103.1 22.9 L 105.4 21.3 L 105.6 21.4 L 103.9 23 L 103.4 23.6 L 102 24.3 L 103.3 24.5 L 103.1 25.2 L 104.5 25 L 105.9 23.9 L 107 24.3 L 107.5 24.8 L 109 24.7 L 108.9 23.6 L 106.6 21.9 L 106.1 21.4 L 105.9 20.8 L 106.9 20.9 L 107.7 21.6 L 108.6 20.7 L 110.4 20.5 L 112.2 19.2 L 112.1 18.4 L 113.5 17.1 L 112.6 16.1 L 115 16 L 117.1 16.1 C 117.1 16.1 118.1 15.6 118.3 15.9 C 118.5 16.2 120 17.3 120 17.3 L 119.4 17.8 L 116.9 18.1 L 116.3 19.3 L 118.1 19.5 L 119.5 18.1 L 121 18 L 121.2 19.4 C 121.2 19.4 119.5 20.4 119.3 20.4 C 119.1 20.5 118 20.9 118 20.9 L 117.9 22 L 116.3 22.2 L 114.6 21.9 L 113.8 22 L 112.5 23 L 113.5 23.9 C 113.5 23.9 115 23.3 115.2 23.1 C 115.4 22.9 116.2 22.6 116.4 22.9 C 116.6 23.2 117.6 24 117.6 24 L 118.4 25.6 L 119.2 25.8 L 121.6 26.6 C 121.6 26.6 123.3 27 123.3 27.1 C 123.3 27.2 123.1 26.1 123.1 26.1 L 121.8 24.6 C 121.8 24.6 121.7 24.2 122.2 24.3 C 122.6 24.4 123.6 25.3 123.6 25.3 C 123.8 25.4 125 26.1 125 26.1 L 125.5 24.8 L 126.6 24.1 L 126.2 23.3 L 125.6 22.6 L 124.9 21.8 L 125 20.9 C 125 20.9 125.2 20.8 125.4 20.7 C 125.6 20.6 126.1 20.2 126.2 20.4 C 126.3 20.6 127.5 22.2 127.5 22.2 L 128.6 22.4 L 129.1 21.5 C 129.1 21.5 130.6 21.3 130.6 21.4 C 130.6 21.5 130.7 20.7 130.7 20.7 L 132.1 20.3 L 130.1 18.6 L 129 18.1 L 128.2 18.3 L 127.4 17.4 L 128.2 16.6 L 128.6 15.5 L 127.6 14.5 L 126.1 14.2 L 125.7 13.4 C 125.7 13.4 124.4 13.2 124.3 13.3 C 124.1 13.4 123.2 12.2 123.2 12.2 L 122.4 11.2 C 122.3 11.1 121.9 10.7 121.6 10.8 C 121.4 10.9 118.9 10.9 118.9 10.9 L 118.3 11.1 L 117.5 10.5 L 114.4 11.3 L 112.8 12.6 C 112.8 12.6 112.7 11.9 112.8 11.7 C 112.9 11.5 114.1 10.9 114.2 10.7 C 114.4 10.6 112.8 10.5 112.8 10.5 C 112.8 10.5 109.9 11.5 109.8 11.6 C 109.7 11.8 107.5 13.5 107.5 13.5 L 107.6 14.9 L 109.6 15.2 L 110.4 15.4 L 109.9 15.9 L 109.5 16.8 L 108.2 17.5 L 106.6 18.7 L 105.2 19.2 L 105 18.2 L 106.2 17.5 C 106.2 17.5 106 16 105.8 16.1 C 105.7 16.2 104.4 16 104.4 16.2 C 104.3 16.4 104.5 15.1 104.5 15.1 L 104.4 13.8 L 104.1 12.8 C 104.1 12.8 105.1 12 105.3 11.9 C 105.5 11.8 107.4 11.7 107.4 11.7 L 110.4 10 L 107.9 9.9 C 107.9 9.9 105.6 10 105.5 10.2 C 105.4 10.4 103.8 12 103.8 12 L 102.8 12.7 L 99.6 14.7 L 99.5 16.1 L 98.2 15.9 L 97.2 15.7 L 94.8 16.7 L 94.8 18 L 90.4 18.2 C 90.4 18.2 88.3 17.9 88.3 17.6 C 88.3 17.3 87.5 16.7 87.3 16.7 C 87.1 16.7 84.4 17.5 84.4 17.5 L 84.3 18.3 L 81.2 18.1 C 81.2 18.1 78.6 18.6 78.7 18.3 C 78.8 18.1 77.3 18.2 77.3 18.2 L 79.5 17.2 L 78 16.5 L 75.5 17 L 73.6 16.4 L 71.5 16.7 L 71.3 15.8 L 69.4 16.6 L 68.9 15.3 L 67.6 15.9 C 67.6 15.9 62.7 16.9 62.5 17 C 62.3 17.1 61.1 16.5 61.1 16.5 L 59.6 17.2 L 56.7 17.4 L 55.6 16.6 L 53 16.1 L 50.4 16.2 L 45.6 15.4 C 45.6 15.4 42.9 15 43 14.9 C 43.2 14.8 41.5 14.4 41.5 14.4 C 41.5 14.4 41.6 14.2 41.6 14.1 C 41.6 14.1 41.6 14.1 41.6 14.1 C 41.6 14.1 41.7 14.1 41.7 14.1 C 41.7 14 41.7 14.1 41.6 14.1 C 41 14.4 36.3 15.1 36.3 15.1 L 30 17.1 L 26.1 18 C 26.1 18 26.2 19.1 26.3 19.3 C 26.4 19.5 26.7 20.7 26.7 20.7 L 25.6 20.9 L 24.4 20.9 L 25 20.1 L 18.9 21.8 L 19 22.5 L 18.6 23.3 L 20.5 23.5 L 22.1 23.7 C 22.1 23.7 23 23.2 23 23.3 C 23 23.5 22.5 24.8 22.5 24.8 L 20.6 24.9 C 20.5 24.7 19.5 25 19.5 25 C 19.5 25 18.2 25.8 18.2 25.6 C 18.1 25.4 15.7 26 15.7 26 L 12.9 27.6 L 11.8 29.2 L 11.7 30.4 L 13.8 30 L 12.6 31.6 L 14 31.5 C 14 31.5 15.6 31.5 15.7 31.7 C 15.8 31.9 16.5 31.8 16.5 31.9 C 16.5 32 2.3 37.5 2.2 37.3 C 2.1 37.1 -8.88178e-16 38.3 -8.88178e-16 38.3 C -8.88178e-16 38.3 2.7 37.8 2.9 37.8 C 3.1 37.8 7.1 36.8 7.1 36.8 L 9 36.3 C 9 36.3 13.1 35.1 13.2 34.9 C 13.3 34.7 16.1 33.2 16.3 33.2 C 16.5 33.2 17.4 32.8 17.5 33 C 17.6 33.2 21.6 31.9 21.6 31.9 C 21.6 31.9 23 30.9 22.9 30.7 C 22.8 30.5 21.9 30 22.2 30 C 22.4 29.9 24.6 29.6 24.6 29.6 C 24.6 29.6 27.8 28.3 27.8 28.5 C 27.7 28.7 24.5 30.8 24.5 30.8 L 29.1 29.9 L 31 29.1 C 31 29.1 32.6 28.4 32.4 28.6 C 32.3 28.8 34.2 29.3 34.2 29.5 C 34.2 29.7 38.2 30.3 38.2 30.3 L 39.4 32.1 L 39.2 34.4 L 39.1 37.3 L 41.3 37.1 L 40.8 39 L 40.9 42.2 C 40.9 42.2 41 43.3 41 43.5 C 41 43.7 39.3 43.1 39.3 43.1 C 39.3 43.1 39.1 44.5 39.2 44.7 C 39.4 44.9 41.4 46.9 41.4 46.9 L 40.7 47.7 L 39.2 51.4 L 35.7 55.5 L 35.1 57.7 L 33.4 59.6 L 33.7 61 C 33.7 61 33.2 62 33.3 62.1 C 33.4 62.2 34.1 68.7 34.1 68.7 L 36.6 70.3 L 37.3 71.5 L 37.7 76.4 L 38.8 78.6 L 37.6 79.4 L 39 81.3 L 39.5 81.4 L 40.6 82.7 L 40.2 84.4 L 41.3 85.3 L 42.4 87 L 42.6 87.8 L 43.6 86.8 L 42.6 84.7 C 42.6 84.7 41.9 83.1 41.9 82.8 C 42 82.4 40.9 79.8 40.9 79.8 C 40.9 79.8 39.9 77.8 40.1 77.6 C 40.2 77.4 39.4 76.2 39.4 76.2 L 39.8 73.8 L 41.5 74.2 C 41.5 74.2 41.8 76.5 41.8 76.7 C 41.8 76.9 42.2 78.4 42.2 78.4 L 44.5 81.6 L 44.1 83.2 L 48.5 88.4 L 48.4 90.5 L 47.7 91.5 L 48.1 92.9 L 51.7 95.6 L 52.3 95.5 L 53.4 96.6 L 57.3 98.6 L 59.3 99.1 L 61.6 98.4 L 63.1 99.1 L 65.4 101.7 L 67.7 102.3 L 70.1 103.1 L 71.2 103.1 L 71.5 104.5 C 71.5 104.5 72.6 105.9 72.8 106.1 C 73 106.3 72.9 107.8 72.9 107.8 L 73.9 108.3 L 75.1 109.6 L 75.9 110.3 L 76.7 111.3 L 77.2 110.9 L 78.3 111.2 L 79.9 112.6 L 80.9 112 L 80.6 110.9 L 81.5 109.9 L 82.3 109.9 L 83.2 110.6 L 83.1 111.4 L 84.2 113.1 L 84.3 117.9 L 83.3 119.5 L 82 120.4 L 81.9 121.8 L 80.5 122.3 L 80 124.2 L 79.2 125.9 L 79.4 127.3 L 80.6 128.4 L 79.5 129.5 L 78.7 130.6 L 79.4 132.9 C 79.4 132.9 79.8 134 79.8 133.9 C 79.8 133.8 80.9 134.7 80.9 134.7 L 83 138.9 L 85 141.8 C 85 141.8 88 147.7 88 147.8 C 88.9 148.5 95.4 153.1 95.4 153.1 L 96.5 158.9 L 96.8 171.2 L 97.8 174.7 L 97.4 181.8 L 97.1 183.2 C 97.1 183.2 98.4 185.4 98.4 185.8 C 98.4 186.1 98.6 188.9 98.6 188.9 L 99.5 191.9 L 100.5 191.8 L 99.9 190 L 100.7 190.1 L 101.3 192.9 L 101.4 194 L 100.8 193.4 L 100.2 194 L 99.8 194.5 L 100.6 195.2 L 100.2 196.3 L 100 197.7 L 101.1 197.9 L 101.9 198.5 L 101.1 199.9 C 101.1 199.9 106 208.6 110.2 209.6 C 114.3 210.6 115.5 211 115.5 211 L 117.3 210 L 117.9 209.3 L 114.2 208 L 111.4 205 L 110.8 203.4 L 111.7 202.8 L 111.5 201.6 C 111.5 201.6 111.5 200.7 111.8 200.5 C 112.1 200.3 112.8 199.1 112.8 199.1 L 111.8 198.6 L 110.2 197 L 110.4 195.2 L 111.4 194.6 C 111.4 194.6 111.5 193.6 111.3 193.3 C 111.1 193.1 111.5 191.9 111.8 191.8 C 112 191.7 112.7 190.8 112.7 190.8 L 111.6 190.8 L 111 190.6 L 110.2 189.3 L 110.2 188.3 L 111.6 188.7 L 112.9 188.5 L 113.6 187.5 C 113.6 187.5 113.4 186.9 113.3 186.6 C 113.2 186.4 113.5 185.3 113.7 185.2 C 113.9 185.1 115.4 185.3 115.4 185.3 L 118.1 184.6 C 118.1 184.6 119.1 182.8 119.1 182.4 C 119 182.1 119 181 119 181 C 119 181 119 180.3 118.4 180.2 C 117.8 180.1 117.8 179.9 117.6 179.2 C 117.4 178.6 117 177.8 117 177.8 L 116.2 178 L 116.9 177.3 L 118.5 178.5 L 120.9 178.9 L 122.7 177.1 L 124 174 L 124.6 171.7 L 125.8 171.7 L 127.1 169.4 L 127.6 167.2 L 127.2 164.6 L 127.8 163.6 L 131.9 160.8 L 135 159.8 L 136 159 C 136 159 137.6 156.9 137.6 156.6 C 137.6 156.4 138.2 153.3 138.2 153.3 C 138.2 153.3 138.9 149.6 138.8 149.4 C 138.7 149.2 139 146 138.8 145.9 C 138.6 145.8 138.9 144.9 138.9 144.9 L 141.9 140.6 L 143.3 137.3 C 143.3 137.3 144.3 135.6 144.2 135.3 C 144 135.2 143.1 132.5 143.1 132.5 Z" stroke="none" stroke-width="1" stroke-dasharray="" stroke-dashoffset="1" fill="#E3DED1" fill-opacity="1"/><path d=" M 174.6 15.9 L 174.6 15.9 C 174.6 15.9 175.1 13.5 174.7 13.3 C 174.3 13.1 176.1 11.6 176.1 11.6 C 176.1 11.6 178.7 10.4 178.8 10 C 178.9 9.6 178.1 9.8 178.1 9.8 L 178.3 8 L 180 7.4 C 180 7.4 179 6 178.8 5.2 C 178.6 4.5 181.7 4.1 181.7 4.1 L 187.2 1.6 L 180.6 2.3 L 180.4 1.5 L 173.5 0 L 159.6 0.5 L 158 1.3 L 153.2 1.3 L 146.5 1.9 C 146.5 1.9 140.2 2.7 139.8 3 C 139.4 3.2 140.5 3.6 140.5 3.6 L 140.4 4.4 L 132.6 5.4 L 132.1 6.2 C 132.1 6.2 132.9 7 133.1 7.2 C 133.2 7.3 136.4 8 136.4 8 L 140.2 8.5 C 140.2 8.5 142.4 9.5 142.7 9.8 C 143.1 10.2 142.9 11.2 142.8 11.8 C 142.7 12.4 142.3 12.5 141.8 13.2 C 141.3 13.9 142.8 13.6 142.8 13.6 L 144.5 14.4 C 144.5 14.4 144 14.4 143.3 14.5 C 142.6 14.6 141.6 14.9 141.6 14.9 L 141.5 16.2 L 143.9 15.7 L 143.7 16.5 L 142 16.9 L 140.3 18.9 L 140.2 22.7 L 140.6 25.9 L 141.6 28.5 L 143.2 28.7 L 145 29.8 L 147.4 29.7 L 149.8 26.5 L 152.3 24.1 L 153 22.8 L 154.2 22.1 L 156.8 21.5 L 160.1 20.8 C 160.1 20.8 163.2 18.8 163.6 18.5 C 164 18.3 172.6 15.6 172.6 15.6 L 174.6 15.9 Z" stroke="none" stroke-width="1" stroke-dasharray="" stroke-dashoffset="1" fill="#E3DED1" fill-opacity="1"/><path d=" M 177 24.6 L 180.3 23.5 L 181 22.2 L 179.7 21.1 L 173.6 21.8 L 171.8 20.7 L 169.7 21.9 C 169.7 21.9 170.8 22.4 171.1 22.6 C 171.5 22.8 172.2 22.4 172.2 22.4 L 172.2 23.5 C 172.2 23.5 174.1 24.6 173.9 24.9 C 173.6 25.3 177 24.6 177 24.6 Z" stroke="none" stroke-width="1" stroke-dasharray="" stroke-dashoffset="1" fill="#E3DED1" fill-opacity="1"/><path d=" M 182.9 40.9 L 182.2 41.3 L 182 42.1 L 182.6 42.5 L 183.6 42.7 L 184.6 42.5 L 185.4 42 L 185.6 41.8 L 187 41.7 L 187.2 41.1 L 187.5 40.5 L 187.5 38.8 L 188.3 38.4 L 188.1 37.3 L 186.9 37 L 185.9 36.8 L 185.3 37 L 184.9 37.5 C 184.9 37.5 184.3 38.1 184.4 38 C 184.5 37.9 184.8 37.9 184.8 38.1 C 184.7 38.3 184.4 38.5 184.4 38.5 L 183.9 38.5 L 183.5 38.3 L 182.9 38.4 L 182.7 38.8 L 182.9 39.4 L 182.5 39.8 L 183 40 L 183.5 40.1 L 183.4 40.7 L 182.9 40.9 Z" stroke="none" stroke-width="1" stroke-dasharray="" stroke-dashoffset="1" fill="#E3DED1" fill-opacity="1"/><path d=" M 187.6 36.2 L 187.6 36.2 C 187.9 36.3 188 36.5 188 36.6 C 188 36.7 188.6 36.8 188.6 36.8 L 189.1 36.7 L 188.7 37.3 C 188.7 37.3 188.8 37.7 188.9 37.8 C 189 38 189.4 37.8 189.4 37.8 C 189.4 37.8 190.4 37.6 190.5 37.7 C 190.6 37.7 190.5 38.1 190.5 38.1 L 190.9 38.7 C 190.9 38.7 191.1 39.5 191.1 39.7 C 191.1 39.9 190.8 39.9 190.8 39.9 C 190.8 39.9 190 40 189.9 40 C 189.7 40 189.4 40.3 189.1 40.6 C 188.8 40.9 189.1 40.8 189.1 40.8 L 189.7 40.8 C 189.7 40.8 189.7 41.2 189.8 41.4 C 189.8 41.6 189.3 41.7 189.2 41.7 C 189 41.7 188.3 42 188.3 42 L 188.3 42.6 L 189.2 42.7 L 190.1 42.8 L 190.3 43.1 C 190.3 43.1 189.7 43.2 189.6 43.1 C 189.4 43 189 43.7 189 43.7 L 188.6 44.2 L 187.7 44.9 L 188 45 L 188.3 44.6 L 189.1 44.6 L 190 44.5 C 190 44.5 190.5 43.9 190.6 43.9 C 190.7 43.9 192 43.9 192 43.9 C 192 43.9 193 43.7 193.1 43.8 C 193.2 43.9 194 44 194.1 44.1 C 194.2 44.1 195.8 43.7 195.8 43.7 C 195.8 43.7 196.1 43.2 196.2 43 C 196.3 42.8 195.8 42.7 195.6 42.6 C 195.5 42.5 196 42.3 196.2 42.2 C 196.4 42.1 196.5 41.6 196.6 41.4 C 196.7 41.2 196.4 40.8 196.4 40.7 C 196.4 40.6 195.8 40.6 195.6 40.6 C 195.4 40.6 194.8 40.6 194.8 40.6 L 194.8 39.8 C 194.8 39.8 192.9 37.3 193 37.1 C 193 37 192.6 36.2 192.4 36.2 C 192.2 36.2 192 36 191.7 35.7 C 191.5 35.4 192 35 192 35 C 192 35 192.7 34.3 192.8 34.1 C 192.9 33.9 192.7 33.5 192.6 33.4 C 192.5 33.4 191.1 33.4 191.1 33.4 C 191.1 33.4 190.7 33.1 190.7 33 C 190.7 32.9 191.1 32.8 191.3 32.8 C 191.4 32.8 192.1 31.4 192.3 31.4 C 192.5 31.4 192.2 31 192.2 31 L 191.6 31.2 L 191.1 32 C 191.1 32 190.6 32.1 190.4 32 C 190.2 31.9 189.8 32 189.6 32 C 189.4 32 189.1 32.5 189.1 32.5 C 189.1 32.5 188.5 33.1 188.4 33.1 C 188.2 33.1 187.7 33.8 187.7 33.8 C 187.7 33.8 187.8 34.4 187.8 34.4 C 187.8 34.4 187.7 34.6 187.5 34.6 C 187.3 34.6 187.7 35.3 187.7 35.3 L 188.2 35.5 C 188.2 35.5 187.9 35.8 187.8 35.7 C 187.7 35.6 187.3 36.1 187.6 36.2 Z" stroke="none" stroke-width="1" stroke-dasharray="" stroke-dashoffset="1" fill="#E3DED1" fill-opacity="1"/><path d=" M 326.1 97.9 C 326.2 97.8 327.3 97.2 327.3 96.9 C 327.3 96.6 328.1 99.5 328.1 99.5 L 328.7 101.5 C 328.7 101.5 329.1 102.9 329.3 103.2 C 329.5 103.5 329.7 105.3 329.7 105.5 C 329.7 105.7 330.2 106.7 330 106.9 C 329.8 107 329.4 106.9 329.4 107.1 C 329.5 107.3 329.7 108.1 329.7 108.3 C 329.7 108.5 329.6 109.5 329.5 109.7 C 329.4 109.9 329.4 110.4 329.4 110.7 C 329.4 110.9 329.6 111.4 329.6 111.5 C 329.6 111.6 329.7 111.8 329.7 111.8 C 329.7 111.8 329.9 111.9 329.9 111.7 C 330 111.5 330.6 111.4 330.7 111.5 C 330.8 111.6 331.7 112.7 331.8 113 C 331.9 113.3 332.9 114.9 333 115 C 333.1 115.2 333.6 115.7 333.3 116.1 C 333 116.5 333 116.6 333 116.9 C 333 117.1 333.2 118 333.6 118.5 C 334 119 334.8 119.9 334.8 119.9 C 334.8 119.9 335.8 120.6 336 120.8 C 336.2 121 337.3 121.1 337.4 121.6 C 337.5 122.1 337.8 122.6 337.8 122.6 C 337.8 122.6 338.7 122.9 338.7 123 C 338.7 122.9 338.7 121.5 338.6 121.3 C 338.5 121.1 337.5 119.2 337.4 119 C 337.3 118.9 337.1 118.6 337.2 118.1 C 337.3 117.6 337.1 116.2 337.1 116.2 L 335.2 114 C 335.2 114 333.6 112.4 333.5 112.5 C 333.5 112.6 332.2 112 332.3 111.5 C 332.3 111 332.2 109.8 331.8 109.5 C 331.4 109.2 331.1 108.8 330.8 108.6 C 330.5 108.4 330.7 106.9 330.8 106.7 C 330.9 106.5 331.5 104.8 331.5 104.6 C 331.5 104.5 331.7 102.8 331.7 102.8 C 331.7 102.8 332.2 102.1 332.3 102.4 C 332.4 102.6 333 102.4 332.8 103.1 C 332.6 103.8 332.7 104.3 332.7 104.3 L 334.1 104 L 335.1 105 L 335.8 106 L 336.7 106.6 C 336.7 106.6 336.9 107.7 337.1 107.8 C 337.2 107.9 337.8 107.6 337.8 107.6 L 338.7 108.2 C 338.7 108.2 338.2 109.2 338.3 109.4 C 338.4 109.6 338.5 110.5 338.5 110.5 L 339.4 109.8 L 340.5 109 L 341.1 108.2 L 341.3 107.6 L 342.9 106.9 L 344.4 105.5 L 344.4 102.6 L 343.9 100.8 L 342.5 98.9 L 339.9 96.3 L 338.9 95 C 338.9 95 338.2 94.1 338.2 93.8 C 338.2 93.6 338.4 92.3 338.4 92.3 L 339.1 91.6 L 340.5 90.2 C 340.5 90.2 341.5 89.6 341.6 89.7 C 341.8 89.9 343 89.8 343.1 89.9 C 343.1 90 343.3 90 343.2 90.2 C 343.1 90.4 343.2 91.5 343.4 91.6 C 343.5 91.7 343.8 91.8 343.9 91.9 C 344 91.9 344.4 91.8 344.5 91.5 C 344.5 91.3 344.5 90.4 344.5 90.2 C 344.5 90 344.6 90 344.7 90 C 344.8 90 345.4 90 345.4 90 L 346 89.4 L 347.1 89.8 L 348.3 88.8 C 348.3 88.8 348.9 88.7 349 88.8 C 349.1 88.9 350.1 88 350.1 88 L 351.2 87.8 L 352.2 87.4 C 352.2 87.4 352.6 86.5 352.6 86.6 C 352.6 86.7 354.9 84.3 354.9 84.3 L 355.7 82.4 L 356.6 79.7 L 357.2 76.4 L 357.2 75.4 C 357.2 75.4 356.3 76.1 356.2 76.2 C 356.1 76.2 355.4 76 355.4 76 L 356 75 C 356 75 356.3 74.3 356.2 74.2 C 356 74.2 355.2 73.9 355.2 73.9 C 355.2 73.9 355.5 73.1 355.6 73.1 C 355.5 73.1 354.2 71.7 354.2 71.7 C 354.2 71.7 352.4 69.2 352.4 69.4 C 352.3 69.6 351 68.4 350.8 68.4 C 350.7 68.4 350.6 68.4 350.5 68.2 C 350.4 68 351.7 66.3 351.7 66.2 C 351.7 66.1 352.9 64.8 353.1 64.9 C 353.3 64.9 354 65 354 65 C 354 65 353.8 64.2 353.7 64.2 C 353.6 64.2 350.9 63.9 350.9 63.9 C 350.9 63.9 349.8 64.5 349.8 64.7 C 349.8 64.9 348.9 64.8 348.9 64.8 L 348.8 63.9 L 347.7 63.4 L 346.5 63 L 346.5 62.2 C 346.5 62.2 347.3 61.9 347.4 61.8 C 347.5 61.7 348.5 61.2 348.6 60.8 C 348.7 60.4 349.3 59.8 349.4 59.6 C 349.5 59.5 350 59 350.1 59.1 C 350.2 59.2 351 59.7 350.9 59.8 C 350.8 59.8 350.3 60.7 350.4 60.9 C 350.5 61.1 351.1 61.9 351 62 C 350.9 62.1 350.7 62.6 350.7 62.6 L 351.3 62.5 C 351.3 62.5 352.1 61.9 352 61.8 C 352 61.7 352.6 61 352.7 61 C 352.8 61 354.1 60.7 354.2 60.8 C 354.2 60.9 355.6 61.2 355.6 61.2 L 355.8 63.6 C 355.8 63.6 359 64.4 359 64.6 C 359 64.8 358.6 65.1 358.6 65.1 C 358.6 65.1 358.6 65.7 358.7 65.8 C 358.9 65.9 359.4 66.3 359.5 66.5 C 359.6 66.7 359.9 67.7 359.9 67.7 C 359.9 67.7 359.5 68.7 359.5 68.8 C 359.6 68.9 360.4 69.6 360.4 69.6 L 362.7 68.7 C 362.7 68.7 363.9 67.7 363.9 67.6 C 363.9 67.5 362.6 64.3 362.6 64.3 L 359.6 62.2 L 358.3 61.1 L 360.1 59.3 L 359.9 57.7 C 359.9 57.7 360.3 56.2 360.4 56.2 C 360.5 56.2 361.6 55.4 361.6 55.4 L 362.9 56.3 L 364.8 55.1 L 365.9 51.2 L 365.9 46.2 L 364.2 43.1 C 364.2 43.1 363.4 41.2 363.3 41.2 C 363.2 41.2 362 39.4 362 39.4 L 359.3 38.2 L 358.1 38.2 L 357.4 39.4 L 356.6 38.5 L 355.6 36.7 L 355.7 37.8 C 355.7 37.8 355.9 38.5 355.8 38.7 C 355.8 38.9 355 37.7 355 37.7 C 355 37.7 353.7 37.5 353.6 37.5 C 353.5 37.5 352.9 37.1 352.9 37.1 C 352.9 37.1 354.8 34.9 354.6 35 C 354.4 35.1 354.9 32.2 354.9 32.2 C 354.9 32.2 355.6 30.8 355.6 30.9 C 355.6 31 358.2 30.6 358.2 30.6 C 358.2 30.6 362.9 30.5 362.9 30.6 C 362.9 30.7 365.2 30.4 365.2 30.4 C 365.2 30.4 365.3 31.1 365.5 31.2 C 365.7 31.3 367.6 31.2 367.6 31.2 L 369 30.9 L 369.7 30.8 C 369.7 30.8 368.9 30 368.7 30 C 368.6 30 367.8 29.6 367.7 29.6 C 367.6 29.6 368.3 28.1 368.3 27.8 C 368.3 27.6 368.2 26.7 368.5 26.8 C 368.8 26.9 371 26.9 371 26.9 C 371 26.9 371.9 27.7 371.9 28 C 371.9 28.2 373.3 29.1 373.3 29.1 C 373.3 29.1 374.1 28.3 374.1 28.1 C 374.2 28 374.6 27.5 374.7 27.5 C 374.7 27.5 374.7 27.5 374.7 27.5 C 374.5 27.3 373.9 26.5 373.9 26.5 C 373.9 26.5 374.6 25.7 374.9 26.1 C 375.3 26.5 376.1 28.2 376.1 28.2 C 376.1 28.2 375.4 30 375.4 30.2 C 375.4 30.4 375.1 32 375.1 32.1 C 375.1 32.2 374.3 32.9 374.3 32.9 C 374.3 32.9 373.9 32.9 373.9 33.1 C 373.9 33.3 374.5 34.4 374.5 34.4 C 374.5 34.4 374.7 35.6 374.8 35.7 C 374.9 35.8 378.9 39.2 378.9 39.2 L 381.5 41.8 L 383.2 43.2 L 383.7 43.1 C 383.7 43.1 384.1 41.1 383.9 41.2 C 383.7 41.3 383.1 40.6 383.2 40.5 C 383.3 40.4 383.4 39.8 383.6 39.9 C 383.8 39.9 384.4 40.1 384.4 40.1 L 383.2 38.6 L 383.6 37.8 L 384.5 38.1 L 383.3 36.8 L 382.7 35.5 C 382.7 35.5 383.4 35.7 383.4 35.8 C 383.4 35.9 384.2 35.3 383.9 35.2 C 383.7 35.2 382.2 34.6 382.2 34.5 C 382.2 34.4 381.4 34.2 381.3 34 C 381.3 33.8 381.5 33.2 381.3 33.2 C 381.2 33.2 379.9 32.6 379.9 32.6 L 379.1 32.7 L 378.7 31.8 L 378.9 31.1 C 378.9 31.1 378.1 30 378.1 29.9 C 378.2 30 379.8 29.3 380 29.3 C 380 29.3 380.8 29.2 380.8 29.5 C 380.9 29.8 381.2 30.1 381.2 30.1 L 382 29.3 C 382 29.3 382.6 28.8 382.8 28.9 C 383 29 384.2 29.3 384.4 29.4 C 384.5 29.5 385.3 29.8 385.4 29.9 C 385.4 29.7 385.4 29.2 385.4 29.2 L 385.4 28.8 L 386.5 27.3 C 386.5 27.3 386.9 26.7 387.3 26.6 C 387.7 26.5 388.5 25.8 388.7 25.9 C 388.9 26 390.2 26 390.3 26.3 C 390.5 26.7 391.2 26.2 391.2 26.2 C 391.2 26.2 390.5 25.4 390.5 25.4 C 390.5 25.5 388.3 24.5 388.1 24.6 C 388 24.6 386.5 23.7 386.5 23.7 C 386.5 23.7 385.7 23.4 385.7 23.4 C 385.7 23.4 386.3 23.1 386.5 23 C 386.7 22.9 387.3 22.2 387.3 22.2 C 387.3 22.2 387 21.7 386.9 21.5 C 386.7 21.3 387.8 21.5 388.1 21.6 C 388.5 21.8 390.3 21.8 390.2 22 C 390.2 22.1 391.4 22.1 391.4 22.4 C 391.4 22.7 391.8 22.8 392 23 C 392.2 23.2 393.7 23.4 393.8 23.4 C 393.9 23.4 395.4 23.3 395.4 23.5 C 395.4 23.7 395.9 23.5 395.9 23.5 C 395.9 23.5 395.7 22.3 395.4 22.4 C 395.1 22.5 394.6 22.1 395 22 C 395.4 21.9 396 21.5 395.8 21.4 C 395.6 21.3 395.3 20.9 394.8 20.7 C 394.3 20.5 392.4 20.1 392.2 20.1 C 392 20.2 389 19.5 388.8 19.5 C 388.6 19.5 387.6 19.2 387.6 19.2 L 377.4 16.5 C 377.4 16.5 371.1 15.8 371.1 15.7 C 371.1 15.6 367.4 15.3 367.4 15.3 L 369.6 17.1 L 367.4 16.8 C 367.4 16.8 364.7 16.4 364.6 16.2 C 364.5 16.1 357 16 357 16 L 355.9 14.8 C 355.9 14.8 352.3 14.2 352.2 14.2 C 352.1 14.2 347.6 14.2 347.6 14.2 L 343.9 13.6 C 343.9 13.6 341.4 12.5 340.8 12.6 C 340.2 12.7 334.7 12.2 334.4 12.1 C 334.1 11.9 331.9 12.3 331.9 12.3 L 333.7 13.7 L 330.8 13.6 L 327.9 13.6 L 326.8 13 L 326.8 14.6 C 326.8 14.6 326 14.8 326 14.6 C 326 14.4 323.4 13.5 323.4 13.5 C 323.4 13.5 321.2 11.6 321.2 11.7 C 321.2 11.8 317.7 11 317.7 11 L 315.5 10.6 C 315.5 10.6 314.9 10.9 314.9 11 C 315 11.2 315.8 11.7 315.7 11.8 C 315.6 11.9 314.3 11.7 314.3 11.7 L 310.9 11.6 L 310.3 11 L 305.8 11 C 305.8 11 304.1 9.7 304.1 9.8 C 304.1 9.9 302.8 10.1 302.8 10.1 L 301.8 11.1 L 299.1 11.3 L 302 9.7 L 303 8.9 C 303.1 8.7 302.3 7.5 302.1 7.7 C 301.9 7.9 299.7 7.1 299.5 7.1 C 299.4 7.1 296 7 296 7 C 295.8 7 294.7 7 294.7 7 C 294.7 7 294.3 5.9 294.1 5.9 C 293.9 5.9 291.3 5.9 291.3 5.9 C 291.3 5.9 289 6.4 288.9 6.6 C 288.8 6.8 289.3 7.1 289.3 7.1 C 289.3 7.1 288.1 8 287.9 7.9 C 287.8 7.8 284.2 7.8 284.2 7.8 C 284.2 7.8 279.2 8.9 279.2 8.8 C 279.2 8.7 277.7 9.3 277.4 9.5 C 277.7 9.8 278.7 10.4 278.6 10.5 C 278.4 10.7 275.1 10.8 275 10.6 C 274.9 10.4 273.6 10.9 273.4 10.9 C 273.6 11 275.2 12.2 275.3 12.4 C 275.4 12.6 275.7 12.9 276.1 12.7 C 276.5 12.5 276.9 12.4 276.9 12.5 C 277 12.7 276.9 13 276.9 13 C 276.9 13 275.9 13.2 275.8 13.2 C 275.7 13.2 274.5 12.5 274.4 12.5 C 274.3 12.5 272.7 12.1 272.5 12.1 C 272.3 12.1 271.4 12.2 271.4 12.2 C 271.4 12.2 270.7 12.8 270.9 12.9 C 271.1 13 271.5 13.7 271.6 13.7 C 271.7 13.6 272.4 13.3 272.5 13.7 C 272.5 14.1 271.7 14.3 271.7 14.3 C 271.7 14.3 270.5 13.8 270.5 13.7 C 270.5 13.6 269.9 12.9 269.9 12.5 C 269.9 12.1 269.2 10.9 269 11.1 C 268.8 11.3 268.1 11.4 268.1 11.4 L 269 12.2 C 269 12.2 269.8 12.8 269.6 12.9 C 269.4 12.9 268.8 13.3 268.8 13.4 C 268.8 13.5 268.3 14.2 268.8 14.2 C 269.3 14.2 270.2 15 270.2 15 C 270.2 15 270.2 16.1 270.3 16.2 C 270.4 16.4 271.6 17.2 271.6 17.2 C 271.6 17.2 272.4 16.7 272.5 16.6 C 272.6 16.5 273.7 16.3 273.9 16.5 C 274.1 16.7 273.4 17.3 273.2 17.2 C 273 17.1 272.6 17 272.4 17 L 272.2 17.1 C 272.2 17.1 271.9 17.7 272.2 17.8 C 272.5 17.9 272.8 18.3 272.8 18.5 C 272.8 18.7 272 20.1 272 20.1 L 270.9 20.3 C 270.5 20.2 269.9 19.9 269.9 19.9 L 271.1 19 L 271.3 17.8 C 271.3 17.8 271.3 17.7 271 17.4 C 270.7 17.1 269.6 16.1 269.6 16.1 C 269.6 16.1 268.9 15 268.9 14.9 C 268.9 14.8 268.6 14.2 268.6 14.2 C 268.6 14.2 267.8 13.7 267.7 13.6 C 267.5 13.6 267.5 13.1 267.7 12.9 C 267.8 12.7 267.6 11.6 267.5 11.7 C 267.5 11.9 266.1 11.7 265.9 11.6 C 265.7 11.6 265.4 11.1 265.4 11.1 C 265.4 11.1 265.2 10.4 264.9 10.7 C 264.6 11 264 11.1 264 11.1 L 263.4 12.6 L 263.6 13.2 L 262.5 14 C 262.5 14 263.4 14.8 263.5 14.9 C 263.4 14.9 263.5 15.7 263.6 15.9 C 263.6 16.1 265.3 16.5 265.3 16.5 C 265.3 16.5 266.2 16.9 266.3 17.2 C 266.4 17.6 266.1 18 266.1 18 L 264.4 17.2 L 260.6 16 C 260.6 16 256.9 15.8 257 15.6 C 257.1 15.5 255.6 14.6 255.6 14.6 L 254.8 15 C 254.8 15 255.6 15.6 255.7 15.6 C 255.8 15.6 257 16.1 257 16.1 C 257 16.1 257.4 16.3 257.4 16.6 C 257.5 16.9 256.7 17.3 256.7 17.3 C 256.7 17.3 256.2 16.7 256.2 16.6 C 256.2 16.5 256.1 16 255.9 16.1 C 255.7 16.2 254.3 16.9 254.3 16.9 C 254.3 16.9 252.6 16.9 252.4 17.1 C 252.2 17.3 251.1 18 251 17.8 C 250.9 17.6 251.2 16.8 251.1 16.6 C 251.1 16.4 249.4 16.9 249.4 16.9 C 249.4 16.9 247.3 17.6 247.2 17.8 C 247.1 18 246.2 18.2 246 18.2 C 245.8 18.2 245.6 18.2 245.6 18.2 C 245.6 18.2 244.8 18.7 244.9 19 C 245.1 19.3 243.7 19.4 243.7 19.4 C 243.7 19.4 242.9 18.9 242.8 18.8 C 242.8 18.7 243.7 18.1 243.8 18 C 243.7 18.1 242.8 17 242.7 16.9 C 242.6 16.9 240.4 16.9 240 16.9 C 240.3 17 241 17.7 241 17.8 C 241 17.9 241.1 19.1 241.1 19.1 C 241.1 19.1 241.7 19.5 241.9 19.5 C 242 19.5 241.8 20.2 241.8 20.2 L 240.7 20.1 C 240.7 20.1 240.3 19.5 239.9 19.8 C 239.5 20.2 238.3 21.1 238.3 21 C 238.2 20.9 237.5 21.1 237.6 21.4 C 237.6 21.6 238.2 22.2 238.2 22.2 C 238.2 22.2 237.4 22.8 237.5 22.6 C 237.6 22.4 235.4 21.8 235.3 21.8 C 235.1 21.8 234.2 22.1 234.2 22.1 L 234.6 22.8 C 234.6 22.8 235.8 22.9 236 23.1 C 236.2 23.3 235.7 23.8 235.6 23.8 C 235.5 23.8 232.7 22.5 232.7 22.5 C 232.7 22.5 231.8 21.5 232.1 21.3 C 232.4 21 232.6 20.6 232.1 20.6 C 231.6 20.6 231 20.2 231 20 C 231 19.8 234.1 20.3 234.1 20.3 L 235.9 20.5 C 235.9 20.5 235.7 20.7 236.4 20.5 C 237.1 20.3 238.3 19.7 238.5 19.6 C 238.7 19.6 238.9 18.8 238.9 18.8 L 238.7 18.1 L 231.9 16.5 C 231.9 16.5 229.6 15.8 229.6 15.7 C 229.6 15.6 227.6 15.4 227.6 15.4 L 226.6 15.5 L 227.4 14.5 C 227.4 14.5 224.3 13.6 224.2 13.7 C 224.1 13.8 222.8 14.4 222.8 14.4 L 220.4 14 L 217.3 14.7 L 214.2 15.5 L 209.7 17.4 L 211.4 17.6 L 210.7 18.8 L 208.7 20.3 L 207.6 22.1 L 207.4 23.1 L 206.3 24.3 C 206.3 24.3 205.5 23.9 205.4 23.7 C 205.2 23.5 202.6 24.5 202.6 24.5 L 201 26 C 201 26 200.6 26.8 200.5 27 C 200.4 27.2 200.6 29.3 200.6 29.3 C 200.6 29.3 201.6 29.3 201.3 29.6 C 201 29.9 201.1 31.2 201.1 31.2 L 202.2 32 C 202.2 32 203.7 32.5 203.9 32.4 C 204.1 32.4 204.8 31.9 204.9 31.8 C 205 31.7 205.9 30.8 206.2 30.9 C 206.5 30.9 207.2 30.1 207.3 30.4 C 207.4 30.7 207.5 31.7 207.7 31.9 C 207.9 32.1 208.4 32.6 208.7 33.1 C 208.9 33.7 209.3 34.2 209.2 34.3 C 209.1 34.4 208.6 35 208.6 35 C 208.6 35 207.4 35.2 207.2 35.3 C 207 35.5 206.8 35.5 206.7 35.5 C 206.6 35.4 207.1 34.9 207.2 34.7 C 207.3 34.5 206.9 33.9 206.8 33.9 C 206.6 33.9 206.5 33.5 206.6 33.4 C 206.8 33.3 206.7 32.5 206.7 32.5 C 206.7 32.5 206.5 32.4 206.3 32.4 C 206.2 32.4 204.8 33 204.8 33 C 204.8 33 204 33.8 204 34 C 204 34.2 203.6 35 203.8 35.6 C 204 36.2 204.5 37.2 204.5 37.2 C 204.5 37.2 205 37.6 204.8 37.7 C 204.6 37.9 204.2 38.5 204.2 38.5 L 203.2 38.5 C 203.2 38.5 201.5 38.7 201.3 38.8 C 201.1 38.9 199.5 39.4 199.5 39.6 C 199.6 39.8 199.1 41.5 199.1 41.5 C 199 41.5 197.3 42.7 197.2 42.7 C 197 42.7 195.8 43 195.8 43 C 195.8 43 195.2 44.5 195.2 44.4 C 195.2 44.3 193.3 45.3 193.3 45.3 C 193.3 45.3 191.9 44.9 191.9 44.7 C 191.9 44.5 191.4 44.2 191.3 44.3 C 191.3 44.4 191.8 45.7 191.8 45.9 C 191.8 46.1 191.9 46.6 191.7 46.5 C 191.5 46.3 190.7 46.1 190.6 46 C 190.4 45.9 189.1 46 189.1 46 L 189 46 C 189 46 188.3 46.6 188.3 46.5 C 188.3 46.4 188.2 47 188.2 47 L 188.6 47.4 L 190 48 L 191.4 48.8 L 191.9 50.1 L 192.5 51.3 C 192.5 51.3 192.1 53.8 192 53.9 C 191.9 54 191.1 54.6 191.1 54.6 L 188.5 54.6 C 188.5 54.6 187.2 54.3 187.1 54.3 C 187 54.3 185.2 54.5 185.2 54.4 C 185.2 54.2 184.6 54.3 184.6 54.3 L 184.3 54 L 183.6 54 L 183 54.7 L 182.1 54.7 L 182.1 55.4 C 182.1 55.4 182.5 57 182.4 56.9 C 182.4 56.8 182.2 58.8 182.2 58.8 C 182.2 58.8 181.3 60.5 181.3 60.7 C 181.3 60.8 181.3 61.9 181.3 61.9 L 181.8 62.7 L 181.9 63.7 C 181.9 63.7 181.5 64.6 181.7 64.5 C 181.9 64.4 183.1 64.5 183.2 64.4 C 183.2 64.2 184 63.9 184.1 64.2 C 184.2 64.5 184.7 64.2 184.8 64.7 C 184.9 65.2 185.4 65.9 185.4 66 C 185.4 66.1 185.8 66.2 185.8 66.2 L 185.9 66.5 L 185.7 66.7 L 184.7 68.9 L 182.5 70.5 L 181.2 71.3 L 180.8 72.3 L 180.2 72.9 L 180 74.1 C 180 74.1 180.2 75.7 180.1 75.7 C 180 75.8 177.1 78.5 177.1 78.5 L 175.5 78.9 L 174.6 80.4 C 174.6 80.4 173.4 81.5 173.3 81.7 C 173.2 81.9 172.6 82.7 172.6 82.7 C 172.6 82.7 172.6 84.3 172.6 84.1 C 172.6 83.9 170.9 85.4 170.9 85.4 C 170.9 85.4 170.6 87.2 170.5 87.3 C 170.4 87.4 169.6 88.8 169.5 88.7 C 169.4 88.7 169.3 89.7 169.3 89.8 C 169.3 90 169.7 90.4 169.7 90.4 C 169.7 90.4 170.3 91.5 170.3 91.4 C 170.3 91.3 170.3 91.8 170.3 91.8 L 169.7 92.4 C 169.7 92.4 170.3 93.3 170.3 93.4 L 170.3 95.9 L 169.7 97.3 L 169.4 99.1 L 168.4 99.9 L 168.4 100.4 L 169.2 101.1 L 169.3 101.9 L 169.1 102.7 L 169.1 103.5 L 169.7 104.9 C 169.7 104.9 170.3 105.4 170.4 105.3 C 170.5 105.2 171.7 106.1 171.9 106.3 C 172.1 106.6 173.5 108.3 173.5 108.4 C 173.5 108.5 173.7 108.9 173.7 108.9 L 174.4 111.3 C 174.4 111.3 177.9 114.2 177.9 114 C 178 113.9 181.6 116.6 181.6 116.6 C 181.6 116.6 184.5 115.2 184.5 115.3 C 184.5 115.4 187 115.2 187 115.2 L 188.5 115.4 L 189.6 115.9 L 193.7 114 L 194.5 113.4 L 197.6 113.3 L 199.1 113.9 C 199.1 113.9 200.1 115.4 200.1 115.6 C 200.1 115.8 200.7 116.9 200.8 116.8 C 200.9 116.6 204.3 116.5 204.5 116.5 C 204.6 116.5 206.1 118 206.1 118 L 206 119.4 L 205.8 121.9 L 205.3 123.1 L 204.8 124.2 L 204.7 125 C 204.7 125 208.3 130.3 208.3 130.3 C 208.3 130.3 209.2 132.5 209.2 132.5 L 210.3 135.3 L 210.9 136.8 L 210.3 137.7 L 211.3 140.4 L 210.9 143 L 209.3 146.4 L 208.6 148.9 L 208.8 152.2 L 210.7 156.1 L 212.7 160.5 L 212.9 165.4 L 214.5 168.3 L 215.6 170.6 L 216.7 173.2 L 217.3 174 C 217.3 174 217.4 175.3 217.3 175.3 C 217.2 175.3 216.6 175.3 216.7 175.6 C 216.9 175.8 217.8 177.4 217.8 177.4 L 217.8 178.1 L 219.1 178.8 L 220.2 178.3 C 220.2 178.3 221.3 178.1 221.4 178.1 C 221.5 178.1 223.1 177.6 223.1 177.6 L 225.5 178 L 227.2 177.1 L 229 177 C 229 177 232.1 173.9 232.1 174 C 232.1 174.1 235 170.3 235 170.3 L 236.5 169 L 237.3 166.5 L 237.2 164.9 C 237.2 164.9 237.5 164.1 237.8 163.9 C 238.1 163.7 240.8 162.1 240.8 162.1 L 241.4 159.5 L 240.9 156.9 C 240.9 156.9 240.5 155.9 240.5 155.7 C 240.5 155.5 240.8 154.8 240.8 154.8 L 243.4 152.5 C 243.4 152.5 244 151.7 244.3 151.5 C 244.6 151.2 247 150.1 247 150.1 L 248.7 148.5 L 249 142.5 C 249 142.5 248.4 140.3 248.4 140.1 C 248.4 139.9 247.2 136.1 247.2 136 C 247.2 135.8 246.8 133.5 246.8 133.3 C 246.8 133.1 247.7 130.4 247.7 130.4 L 249 127.8 L 254.4 121.6 L 257.4 119.2 L 262 111.7 L 263.5 108.2 L 263.8 104.7 L 262.8 104.5 C 262.8 104.5 262.3 105.1 262.2 105.1 C 262.1 105.2 259.3 105.3 259.3 105.3 L 256 106.3 L 254.4 106.9 L 252.8 105.2 L 253 104 L 250.9 101.4 L 247.9 98.4 C 247.9 98.4 246.4 97.2 246.5 97.1 C 246.6 97 245.7 94.2 245.7 94.3 C 245.7 94.4 244.2 92.9 244.2 92.9 L 244.2 90.2 L 242.6 87.5 L 240.8 84.2 C 240.8 84.2 239.3 80.5 239.1 80.3 C 238.9 80.1 238.3 79.1 238.5 79.1 C 238.7 79.1 240.1 78.9 240.1 78.9 C 240.1 78.9 242.8 82 242.8 82.2 C 242.8 82.4 244.4 85 244.4 85 C 244.4 85 245.6 86.7 245.6 86.6 C 245.6 86.5 245.9 88.2 245.8 88.3 C 245.8 88.4 246.5 90.3 246.5 90.3 L 248.8 92.3 L 249.3 93.8 L 251.4 96.1 L 251.8 97.5 L 250.4 96.2 C 250.4 96.2 250 96.9 250.1 97 C 250.3 97.1 251.7 98.6 251.7 98.6 L 252.4 100.6 L 252.9 102.5 L 253.7 103.1 L 255.9 102.7 L 256.3 101.8 L 258.5 101.8 L 259.5 101.1 L 260.7 100.9 C 260.7 100.9 261.6 100 261.7 99.9 C 261.8 99.9 265.3 98.3 265.3 98.3 C 265.3 98.3 265.4 97.1 265.5 97.1 C 265.7 97.1 269.2 96 269.2 96 L 269.6 94.6 L 270.9 94.5 L 271.3 93.6 L 272.5 92.8 L 272.7 90.8 L 273.6 91.1 L 273.9 90.4 L 273.6 90 L 275 88 L 275 87.3 L 273.6 86.1 L 273 85.4 C 273 85.4 270.8 85.2 270.8 85 C 270.7 84.8 269.9 82.9 269.9 82.9 C 269.9 82.3 269.9 81.2 269.8 81.3 C 269.7 81.4 269 82.1 269 82.1 L 266.5 84.4 L 264.3 85 C 264.3 85 263.6 84.8 263.5 84.7 C 263.5 84.6 263.4 82.7 263.4 82.7 C 263.4 82.7 262.5 81.6 262.4 81.5 C 262.4 81.3 261.7 82.9 261.7 82.9 C 261.7 82.9 260.7 81.5 260.8 81.5 C 260.9 81.5 260.3 80.1 260.3 80.1 L 258.2 77.7 L 258.1 76.5 C 258.1 76.5 259.1 75.4 259.3 75.4 C 259.5 75.4 260.9 75.2 261.1 75.7 C 261.3 76.2 262.5 78 262.5 78.2 C 262.5 78.4 264.3 80 264.5 80 C 264.7 80 265.4 80.4 265.7 80.5 C 265.9 80.7 266.4 80.9 266.6 81.1 C 266.8 81.3 267.3 81.2 267.3 81.2 L 268.6 81 C 268.6 81 269.7 80 269.7 80.2 C 269.7 80.4 271 80.5 270.8 80.8 C 270.6 81.1 270.8 81.9 271 82.1 C 271.1 82.3 276.5 83.2 276.5 83.2 L 279 83.5 C 279 83.5 281.6 83.3 281.8 83.3 C 282 83.3 283.6 83.5 283.8 83.4 C 284 83.4 286.3 86 286.3 86 L 288.5 87.1 L 289 87.1 L 287.7 87.7 C 287.7 87.7 288.1 88.7 288.1 88.8 C 288.1 88.9 290.3 90.5 290.3 90.5 C 290.3 90.5 291.1 90 291.2 90 C 291.3 90 291.9 89.8 291.9 89.5 C 291.9 89.2 291.8 88.4 292 88.3 C 292.2 88.2 292.5 88 292.5 88.3 C 292.5 88.7 293 92.1 292.9 92.1 C 292.8 92.1 293.6 94.7 293.6 94.8 C 293.6 94.9 294.6 98 294.6 98.1 C 294.6 98.2 296.3 101.7 296.4 101.8 C 296.5 101.9 298.1 106.1 298.1 106.1 C 298.1 106.1 299 107.8 299 108.1 C 299 108.4 299.3 109.7 299.6 109.9 C 299.8 110.1 300.9 110.5 300.9 110.5 C 300.9 110.5 301.5 110 301.5 109.8 C 301.5 109.6 302 108.9 302.1 108.7 C 302.3 108.5 303 108.4 303 108.5 C 303 108.7 303.9 109.1 303.9 109.1 L 303.8 111 C 303.8 111 304 112.3 304.1 112.8 C 304.2 113.3 305.2 113.7 305.2 113.7 L 306.4 112.6 L 306.9 110.8 L 305.7 109 C 305.7 109 304.8 108 304.7 107.9 C 304.6 107.8 303.8 107.7 303.8 107.7 C 303.8 107.7 303.9 108.1 304 108.3 C 304.1 108.5 303.8 108.5 303.8 108.5 L 302.9 108.1 L 303.1 107.1 C 303.1 107.1 303.8 107 303.9 107 C 304 107 303.9 105.4 303.9 105.4 C 303.9 105.4 304.1 102.6 304.2 102.5 C 304.3 102.4 304.1 99.6 303.8 99.5 C 303.5 99.4 303.8 98.5 304 98.4 C 304.2 98.4 305.7 97.8 305.7 97.8 L 306.6 96.1 C 306.6 96.1 308.2 95 308.3 94.9 C 308.4 94.8 310.2 92.9 310.2 92.7 C 310.2 92.5 310.4 91.9 310.9 91.8 C 311.4 91.7 312.3 91.1 312.3 91.1 L 312.3 89.8 C 312.3 89.8 312.5 89.2 312.8 89 C 313.2 88.8 314.1 88.7 314.1 88.7 C 314.1 88.7 314.3 89.2 314.2 89.3 C 314.1 89.4 316.2 88.7 316.2 88.7 C 316.2 88.7 317.2 88.7 317.3 88.7 C 317.5 88.7 317.9 87.9 317.9 87.9 C 317.9 87.9 317.7 87.3 318 87.4 C 318.3 87.6 319 88.3 318.9 88.4 C 318.8 88.5 319.3 89.3 319.2 89.6 C 319.1 89.9 321 92.1 321 92.1 C 321 92.1 322 91.7 321.9 92 C 321.8 92.3 321.6 93.3 321.6 93.3 C 321.6 93.3 322.2 93.7 322.4 93.7 C 322.6 93.7 323.3 95.1 323.3 95.1 C 323.3 95.1 323 96.8 323 97 C 323 97.2 323.1 98.3 323 98.5 C 323 98.7 324.6 99.1 324.6 99.1 C 324.6 99.1 326 98 326.1 97.9 Z M 209.3 37.6 L 209.6 36.5 C 209.6 36.5 210.8 36.7 210.9 36.9 C 210.9 37.1 211.2 36.5 211.5 36.8 C 211.8 37.1 212.2 37 212.3 37.3 C 212.3 37.5 212.6 37.8 212.6 37.7 C 212.6 37.5 212.6 37 212.6 37 C 212.6 37 212.2 36.8 212 36.7 C 211.8 36.6 211.8 36.2 212 36.1 C 212.2 36 212.8 35.7 212.9 35.8 C 213.1 35.9 213.8 35.6 213.8 35.6 C 213.8 35.6 213.9 35.4 214 35.2 C 214.1 35.1 214.5 34 214.5 34 C 214.5 34 214.2 33.9 214.1 33.5 C 214 33.1 214.5 32.1 214.7 32.1 C 214.8 32.1 216.4 31.1 216.4 31.1 C 216.4 31.1 217 30.5 216.8 30.3 C 216.6 30.1 214.8 29.2 214.8 29 C 214.8 28.8 214.6 27.8 214.7 27.4 C 214.8 27 215.5 26.2 215.7 26.1 C 215.8 25.9 216.7 24.9 216.9 24.9 C 217.1 24.9 217.7 24.8 217.8 24.7 C 218 24.6 219.4 24 219.1 23.9 C 218.9 23.9 219.2 23.1 219.1 23.2 C 219 23.2 219.2 22.3 219.5 22.2 C 219.8 22.1 220.3 21.8 220.4 21.8 C 220.5 21.8 221.5 21.8 221.7 21.9 C 221.9 21.9 222.8 21.5 222.9 21.9 C 223 22.3 223.3 22.3 223.1 22.5 C 222.8 22.6 222.2 23.2 221.8 23.5 C 221.4 23.9 220.2 24.7 220 24.7 C 219.8 24.7 219.8 24.8 219.4 25 C 219.1 25.2 219.1 24.7 219 25.5 C 218.9 26.3 218.8 27.1 219 27.4 C 219.2 27.7 219.3 28.1 219.1 28.3 C 218.9 28.5 219.1 28.6 219.1 29 C 219.1 29.4 219.6 29.5 219.7 29.7 C 219.7 29.9 220.4 30.2 220.4 30.2 C 220.7 30.2 221.1 30.1 221.2 30.3 C 221.3 30.5 221.4 30.4 221.4 30.4 L 222.1 30.2 C 222.1 30.2 222.8 29.8 223 29.8 C 223.2 29.8 223.6 29.7 223.8 29.8 C 224.1 29.9 225.3 29.5 225.4 29.5 C 225.6 29.5 226.7 29.1 226.8 29.2 C 226.9 29.4 227.5 29.3 227.5 29.3 L 228 29.7 C 228 29.9 227.5 30.5 227.4 30.6 C 227.3 30.7 226.9 31 226.6 30.9 C 226.4 30.8 226.2 30.9 225.9 30.8 C 225.6 30.7 225 30.5 224.8 30.5 C 224.6 30.5 222.8 30.9 222.8 30.9 L 221.8 31.2 L 221.6 31.8 L 221.7 31.9 L 222.7 32.5 C 222.7 32.7 223.1 32.6 223 33.1 C 222.9 33.6 222.9 33.8 222.8 34 C 222.7 34.2 222.2 34.7 222.1 34.4 C 222 34.1 221.4 33.6 221.2 33.5 C 221 33.4 220.6 33.5 220.3 33.5 C 220 33.5 219.5 33.9 219.5 34.3 C 219.5 34.7 219.2 35.3 219.3 35.7 C 219.4 36.1 219.9 36.7 219.7 37 C 219.5 37.3 218.9 37.5 218.7 37.6 C 218.5 37.7 217.9 38.1 217.7 38.2 C 217.5 38.3 216.9 38.5 216.8 38.2 C 216.7 37.9 216.4 37.5 216.4 37.5 C 216.4 37.5 216.2 37.1 216.1 37.2 C 216 37.3 215.6 37.4 215.6 37.4 L 214.6 37.8 C 214.6 37.8 214 38.2 213.9 38.3 C 213.8 38.4 213.2 38.4 212.9 38.5 C 212.7 38.6 211.9 39.2 211.7 38.9 C 211.5 38.6 211.4 39.1 211.1 38.7 C 210.9 38.3 210.9 37.8 210.7 37.9 C 210.4 38 209.8 38.1 209.7 38.3 C 209.6 38.5 209.5 38.5 209.4 38.6 C 209.2 38.8 208.1 38.9 208.1 38.9 L 208.1 38.8 L 208.1 38.8 L 209.3 37.6 Z M 241 68.2 C 240.7 69 240.7 70 240.3 70.8 C 239.9 71.6 239.7 72 239.4 72.5 C 239.1 73 239.1 73.6 238.6 73.9 C 238.1 74.2 237.4 74.6 237 74.3 C 236.6 74 234.9 74.1 234.7 74.1 C 234.5 74.2 232.5 74 232.3 74.5 C 232.1 74.9 230.5 74.6 230.3 74.5 C 230.1 74.4 227.1 73.2 226.9 73.1 C 226.7 73 225.2 72.4 224.9 72.2 C 224.7 72 223.2 71.8 223.1 71.7 C 223 71.5 223.2 71.3 223 71.3 C 222.8 71.4 221 71.9 220.8 72.1 C 220.6 72.3 220 72.8 220 72.8 C 220 72.8 219.3 73.5 219.3 74.1 C 219.4 74.6 220 75.1 219.8 75.4 C 219.6 75.7 218.7 76.1 218.7 76.1 C 218.7 76.1 217.8 75.3 217.5 75.1 C 217.2 75 214.4 74.6 214.4 74.6 L 213.3 73.3 C 213.3 73.3 211.5 72.1 211.3 72 C 211.1 71.9 209.1 72 208.8 71.8 C 208.5 71.6 207.5 70.3 207.1 70.4 C 206.6 70.5 206.8 69.7 207 69.6 C 207.2 69.5 207.7 68.5 207.7 68.3 C 207.6 68.1 208 67.1 207.4 66.8 C 206.8 66.5 207.2 65.5 207.2 65.5 C 207.2 65.5 207.8 65.4 207.6 65.4 C 207.4 65.4 206.5 65.5 206.2 65.2 C 206 64.9 205.9 64.8 205.7 64.9 C 205.5 65 204 65.3 203.8 65.2 C 203.6 65.1 202.2 65.3 201.9 65.3 C 201.7 65.3 202 65.4 201.7 65.3 C 201.4 65.2 200.2 65.8 200.1 66 C 200 66.2 198.8 65.9 198.7 66 C 198.5 66.1 196.8 66.1 196.8 66.1 L 193.9 66.6 C 193.9 66.6 192 67.6 191.9 67.9 C 191.8 68.2 191.2 68.7 191.1 68.8 C 190.9 68.9 189.8 68.8 189.8 68.6 C 189.7 68.4 187.8 68.7 187.8 68.7 C 187.8 68.7 187 68.3 186.8 68.5 C 186.6 68.7 186.6 67.7 186.6 67.7 L 186.9 67 L 188 66.3 L 190.6 65.8 L 191.9 65 L 192.7 64.7 L 193.2 63.4 C 193.2 63.4 194.1 63.2 194 63 C 193.9 62.8 193.7 62 193.7 62 L 195.4 59.3 L 197.8 58.1 L 198.2 57.3 C 198.2 57.3 198 56.2 198.1 56 C 198.3 55.8 199.9 55.5 199.9 55.5 L 201.9 56.2 C 201.9 56.2 203 55.5 203.2 55.4 C 203.4 55.3 204.6 54.6 204.6 54.6 C 204.6 54.6 204.7 54.1 205 54.1 C 205.2 54.2 206.3 53.9 206.4 54.4 C 206.5 54.9 207.4 56.4 207.4 56.4 L 208.8 57.8 L 210.1 58.8 L 211.7 59.4 C 211.7 59.4 212.7 60.2 212.8 60.3 C 213 60.4 213.9 61.4 213.9 61.4 L 214.4 62.2 C 214.4 62.2 214.1 62.9 213.9 63.2 C 213.7 63.5 212.9 64.3 212.8 64.2 C 212.6 64.1 211.2 63.9 211.2 63.9 L 209.7 64.1 C 209.7 64.1 209.5 64.5 209.9 64.8 C 210.3 65.1 210.8 65 211.2 65.3 C 211.6 65.5 212.7 66 212.7 66 C 212.7 66 213.4 66.1 213.4 66.3 C 213.4 66.5 213.6 65.8 213.6 65.4 C 213.5 65 213.5 64.4 213.9 64.3 C 214.3 64.2 215 64.3 215 64.1 C 215 63.9 215.2 63.7 215.2 63.7 L 215.7 63 L 215.6 62.6 L 216.1 62.2 C 216.1 62.2 215.8 61.8 215.6 61.5 C 215.4 61.2 215.1 61 215.3 60.7 C 215.5 60.4 216.1 60 216.4 60.2 C 216.7 60.4 217.6 60.6 217.5 60.9 C 217.4 61.2 217.5 61.6 217.6 61.4 C 217.7 61.2 217.7 60.2 217.7 60.2 C 217.7 60.2 217.2 59.5 216.8 59.5 C 216.4 59.4 215.3 58.9 215 58.8 C 214.7 58.7 214.2 58.4 214.2 58.4 C 214.2 58.4 214.4 57.7 214.1 57.8 C 213.7 57.9 212.7 57.7 212.7 57.5 C 212.7 57.3 211.6 56.5 211.6 56.3 C 211.5 56.1 210.6 54.8 210.6 54.8 C 210.6 54.8 210.1 54.3 210 54.1 C 209.9 53.9 209.9 53.6 209.8 53.1 C 209.7 52.6 211 51.4 210.9 51.6 C 210.8 51.8 211.2 52 211.4 52.6 C 211.6 53.1 212.6 54 212.7 54.4 C 212.8 54.8 214.1 55.8 214.4 55.9 C 214.7 56 214.9 56.4 215.5 56.6 C 216.1 56.8 216 57 216.8 57.3 C 217.6 57.7 217.7 57.8 217.8 58 C 217.9 58.2 218.4 58.1 218.6 58.4 C 218.8 58.7 219 58.8 219 59.1 C 219 59.4 219.2 59.4 219.1 60 C 219 60.6 218.8 60.8 218.9 60.9 C 219 61 220 63.2 220.5 63.2 C 220.9 63.2 222.2 63.7 222 64.4 C 221.8 65.1 222.8 66.1 222.8 66.1 C 222.8 66.1 223.6 66.2 224.2 66.2 C 224.2 65.8 224.1 65.1 224.6 64.9 C 225.1 64.6 225.9 64.3 225.8 64 C 225.7 63.7 225.6 63.2 225.1 62.8 C 224.6 62.4 224.1 62.3 224 61.7 C 223.9 61.1 223.7 60.3 224.2 60.6 C 224.7 60.8 225.2 62 225.5 61.2 C 225.7 60.4 226.3 59.9 226.7 60.1 C 227.1 60.3 227.9 60.6 227.8 60.8 C 227.7 61 228.3 63 228.3 63 C 228.3 63 228.5 63.2 228.7 64.1 C 228.8 65 229.6 65.2 229.5 65.5 C 229.4 65.8 229 66 230 66.1 C 231 66.2 231.9 66.4 231.9 66.6 C 231.9 66.8 232.7 67 232.8 67.1 C 232.9 67.3 233.6 67.6 233.8 67.3 C 233.9 66.9 234.2 66.2 234.3 66.3 C 234.5 66.4 236 66.4 236.1 66.9 C 236.2 67.4 237.2 67.4 237.2 67.5 C 237.2 67.6 238.1 67.2 238.1 67.2 C 238.1 67.2 239.4 66.2 239.7 66.4 C 240.1 66.6 241.1 65.7 241 66.5 C 240.5 66.7 241.3 67.4 241 68.2 L 241 68.2 Z M 246.9 57.7 C 246.7 57.9 245.6 59 245.6 59 L 243.3 58.7 L 241.7 58.7 L 240.4 58.2 C 240.4 58.2 239.5 57.9 239.3 57.7 C 239.1 57.5 238 57.1 238 57.1 L 235.6 57.6 L 233.7 58.1 L 233 58.7 L 230.8 58.2 L 229.5 57.5 L 228.8 56.7 L 229.5 56.7 L 229.3 55.7 L 229.4 55 L 230 54.6 L 230.4 52.9 L 231.1 52.6 L 231.3 51.7 C 231.3 51.7 231.9 51.2 232.1 51 C 232.3 50.8 232.9 50 232.9 50 L 234.3 50.6 C 234.3 50.6 235.8 50.8 235.6 50.8 C 235.4 50.9 234.6 51.7 234.6 51.7 C 234.6 51.7 235.1 52 235.4 52.2 C 235.6 52.4 236.2 52.7 236.1 53 C 236 53.4 237 53.3 237 53.3 L 237.4 52.7 L 239.1 52.3 L 239.7 52 L 238.7 51.7 C 238.7 51.7 237.9 51.4 238 51.2 C 238.1 51 238.9 49.8 238.9 49.8 C 238.9 49.8 240.9 49.2 241.1 49.2 C 241.3 49.2 242.5 49 242.5 49 C 242.5 49 241.5 50 241.4 50.1 C 241.3 50.3 241.5 50.9 241.2 51.1 C 240.9 51.3 240.5 51.6 240.3 51.6 C 240.1 51.7 240.2 52.3 240.4 52.3 C 240.6 52.4 241.2 52.6 241.2 52.6 L 243.8 54 L 245.4 55.6 L 246.7 56.6 C 246.6 56.9 247.1 57.5 246.9 57.7 Z M 262.1 65.5 L 260.6 65.7 C 260.6 65.7 259.3 65.2 259.2 64.9 C 259.1 64.7 258.8 64.1 258.7 64.2 C 258.5 64.3 257.9 64.4 257.7 64.3 C 257.5 64.2 256.9 63.7 256.9 63.5 C 256.9 63.3 256.7 62.7 257 62.5 C 257.3 62.3 257.9 61.8 257.8 61.7 C 257.7 61.5 257.6 60.8 257.6 60.6 C 257.6 60.5 257.6 60.4 258 60.3 C 258.4 60.2 258.4 60.2 258.4 60.2 C 258.4 60.2 258.5 59.8 258.3 59.7 C 258.1 59.5 257 58.7 256.9 58.6 C 256.8 58.4 255.5 57.2 255.3 57 C 255.1 56.8 254.3 56.3 254.3 56.3 L 253.9 55.4 L 254.3 54.3 L 253.2 54.1 L 253 53.3 L 253 53.1 L 254.1 51.8 C 254.1 51.8 254.9 51.4 255.1 51.5 C 255.3 51.6 255.7 51.1 255.8 51 C 255.9 50.8 257 50 257.2 49.9 C 257.4 49.8 257.9 49.2 258.1 49.5 C 258.3 49.8 259.8 50.3 259.8 50.3 C 259.8 50.3 260.3 50.4 260.3 50.7 C 260.2 50.9 259.8 52.5 259.8 52.5 C 259.8 52.5 258.7 52.2 258.6 52.3 C 258.5 52.4 257.6 52.7 257.8 53.1 C 258 53.6 257.1 53.3 257.2 53.5 C 257.3 53.7 257.4 54.1 257.6 54.2 C 257.8 54.3 258.8 54.9 258.9 55.2 C 259 55.6 260.7 56.6 260.7 56.6 C 260.7 56.6 260.9 56.7 260.8 57 C 260.7 57.2 260.6 58.5 260.8 58.5 C 261 58.5 261.4 58.4 261.4 58.4 C 261.4 58.4 261.9 57.3 262.1 57.4 C 262.3 57.5 263 58.1 263.2 58.5 C 263.4 58.9 263.7 59.3 263.6 59.5 C 263.4 59.6 262.6 59.6 262.3 59.6 C 262.1 59.6 261.6 59.3 261.5 59.4 C 261.4 59.5 261.1 59.8 261.3 60.2 C 261.5 60.6 261.8 61.1 262 61.2 C 262.2 61.3 262.4 61.3 262.9 61.7 C 263.4 62.2 263.6 62.4 263.4 63 C 263.2 63.5 263.3 64 263.4 64.2 C 263.5 64.4 263.6 64.8 263.7 65 C 263.8 65.2 263.8 65.4 263.8 65.4 L 262.1 65.5 Z" stroke="none" stroke-width="1" stroke-dasharray="" stroke-dashoffset="1" fill="#E3DED1" fill-opacity="1"/><path d=" M 240.6 17.8 C 240.5 17.8 240.5 17.8 240.6 17.8 C 240.5 17.8 240.5 17.8 240.6 17.8 Z" stroke="none" stroke-width="1" stroke-dasharray="" stroke-dashoffset="1" fill="#E3DED1" fill-opacity="1"/><path d=" M 385.7 30.1 C 385.7 30.2 385.7 30.2 385.7 30.1 C 385.7 30.1 385.7 30.1 385.7 30.1 Z" stroke="none" stroke-width="1" stroke-dasharray="" stroke-dashoffset="1" fill="#E3DED1" fill-opacity="1"/><path d=" M 261.1 143.4 L 261.1 143.4 C 261.1 143.4 259.8 144.8 259.7 145.1 C 259.6 145.3 258.6 146.6 258.4 147 C 258.2 147.4 257 148.3 257 148.3 L 254.7 149.3 C 254.7 149.3 253.9 149.4 254.1 149.7 C 254.1 149.7 253.9 150.3 253.4 151.1 C 252.8 151.8 253.4 152.8 253.4 152.8 L 253.7 154.4 L 253.7 155.9 C 253.7 155.9 253.2 157.6 253 157.7 C 252.8 157.8 252.4 158.3 252.1 159.1 C 251.9 159.9 251.9 160.5 251.9 160.5 C 251.9 160.5 252.1 161.7 251.8 161.9 C 251.6 162.1 252.2 163.3 252.4 163.7 C 252.6 164.1 253.3 164.3 253.3 164.3 C 253.3 164.3 253.9 164.8 254.1 164.9 C 254.3 165.1 255.5 164.6 255.5 164.6 C 255.5 164.6 256.4 164.2 256.6 164 C 256.8 163.8 257 163.8 257.5 163 C 258 162.2 257.7 162.4 257.7 162.2 C 257.8 162 258.3 160.9 258.5 159.6 C 258.7 158.2 258.8 158.3 259.1 157.1 C 259.4 155.9 259.8 155.6 259.9 154.6 C 260 153.6 260.1 153.2 260.1 152.9 C 260.2 152.6 261 151.4 261.1 150.6 C 261.2 149.8 261.2 149.4 261 149.1 C 260.8 148.8 262 149 262.1 148.5 C 262.3 148 262.1 148.5 262.2 148.3 C 262.3 148.1 262.4 146.5 262.4 145.7 C 262.4 144.8 261.5 143.5 261.4 143.2 C 261.5 142.9 261.1 143.4 261.1 143.4 Z" stroke="none" stroke-width="1" stroke-dasharray="" stroke-dashoffset="1" fill="#E3DED1" fill-opacity="1"/><path d=" M 340.6 131.9 L 340.6 131.9 C 340.8 131.3 340.6 131.2 340.4 130.9 C 340.2 130.6 340.7 129.1 341.4 128.6 C 342 128 341.1 128 341.1 128 L 340.1 128.2 L 339.2 126.5 C 339.2 126.5 337.7 125.3 337.2 125 C 336.7 124.7 337.9 124 337.9 124 C 337.9 124 335.2 121.5 334.9 121.5 C 334.6 121.5 333 120.2 332.7 120.1 C 332.5 120 331.2 117.9 331.2 117.9 L 325.8 115.2 C 325.8 115.2 325.1 115.8 325.1 116.2 C 325.1 116.5 326.1 116.7 326.1 116.7 C 326.1 116.7 326.4 116.9 326.7 117.1 C 327 117.3 328 118.1 328.1 118.6 C 328.2 119.2 328.3 119.5 328.9 119.9 C 329.5 120.4 330.4 120.6 330.4 120.6 C 330.4 120.6 330.8 122 331.1 122.1 C 331.4 122.3 331.7 123 331.8 123.4 C 332 123.8 333.5 126.3 333.4 127.1 C 333.3 128 334.5 130.1 334.5 130.1 C 334.5 130.1 337.2 132.2 337.3 132.6 C 337.4 132.9 339.4 133.5 339.4 133.5 C 339.4 133.5 340.4 132.5 340.6 131.9 Z" stroke="none" stroke-width="1" stroke-dasharray="" stroke-dashoffset="1" fill="#E3DED1" fill-opacity="1"/><path d=" M 359.1 115.6 L 359.1 115.6 C 359.1 115.3 358.2 114.6 358 114.2 C 357.8 113.9 356.3 112.6 356 112.4 C 355.7 112.2 356 112.4 355.5 113.3 C 355 114.2 354.5 115.2 354.2 115.3 C 354 115.4 352.2 116.5 351.7 117.1 C 351.2 117.7 350.3 119.1 350 118.9 C 349.7 118.7 348.3 119.9 348.3 119.9 L 347.6 121.7 L 345.4 121.2 L 345.6 121.9 C 345.6 121.9 344.9 123 345 123.3 C 345.2 123.5 345 124.4 345.2 124.9 C 345.4 125.4 345.7 125.7 346.1 126 C 346.5 126.3 346.6 127.4 346.3 128.2 C 346 129 346.6 129.2 346.9 129.5 C 347.2 129.8 347.9 129.9 348.3 129.7 C 348.6 129.5 349.3 129.4 349.7 129.6 C 350.1 129.8 351.1 129.8 351.4 130.2 C 351.7 130.6 353 130.4 353.2 130.6 C 353.4 130.8 354.7 130.4 355 130 C 355.3 129.7 355 129.1 355 128 C 355 127 355.2 127 355.7 126.6 C 356.3 126.2 356.7 125.9 356.7 125.3 C 356.8 124.7 356.9 123.8 356.9 123.3 C 356.9 122.8 358.2 122.9 358.4 122.7 C 358.6 122.5 358.2 122.2 358.2 122 C 358.2 121.8 357.2 120.6 356.9 120.2 C 356.7 119.8 357.3 117.8 357.7 117.5 C 358.4 117.1 359.1 115.9 359.1 115.6 Z" stroke="none" stroke-width="1" stroke-dasharray="" stroke-dashoffset="1" fill="#E3DED1" fill-opacity="1"/><path d=" M 348 137 C 348.2 137.1 348.8 137.1 350 137.4 C 351.2 137.7 352.3 137.8 352.5 138.1 C 352.7 138.4 353.7 138.1 354.2 138 C 354.7 137.9 355.8 136.9 356.5 137.7 C 357.2 138.5 358.6 137.9 358.9 138.1 C 359.1 138.3 359.9 137.7 360.7 137.8 C 361.6 137.9 361.7 138.1 361.9 138.1 C 362.1 138.1 362.9 138.3 363.3 138.3 C 363.7 138.2 364.2 137.7 364.9 137.8 C 365.6 137.9 367.5 137.2 367.5 137.2 C 367.5 137.2 367.5 137.3 367 137.6 C 366.5 137.9 364.9 139.1 364.9 139.1 C 364.9 139.1 364.7 138.9 364.6 139.4 C 364.5 139.9 364 140.8 364.5 140.4 C 365 140 366.7 138.6 367.1 138.3 C 367.5 138 367.7 137.8 368.1 137.6 C 368.5 137.4 369.4 137.1 369.4 137.1 L 370 136.7 C 370 136.7 369.5 136.4 369.3 136.5 C 369.1 136.6 368.7 136.2 368.1 136.4 C 367.5 136.6 366 136.9 366 136.9 C 366 136.9 365 137.1 364.5 136.8 C 363.9 136.6 363.3 136.2 363.1 136.5 C 362.9 136.8 361.5 137.2 361.3 137.2 C 361.1 137.2 360.2 137.1 359.5 137 C 358.9 136.8 358.7 136.8 358.4 136.8 C 358.1 136.8 358.1 136.6 357.2 136.5 C 356.3 136.4 356.1 136.2 355.8 136.3 C 355.6 136.4 355.2 136.5 354.8 136.6 C 354.5 136.8 353.5 136.8 353.3 136.5 C 353.1 136.3 350.7 135.8 350.7 135.8 C 350.7 135.8 350.4 135.4 351.1 135.2 C 351.8 135 351.7 135 351.6 134.6 C 351.5 134.3 350.3 134.3 350 134.4 C 349.7 134.5 348.9 134.6 348.6 134.3 C 348.3 134 347.3 133.2 347 133.7 C 346.7 134.2 346.8 134.8 346.5 134.7 C 346.2 134.6 344 134.9 344 134.6 C 344 134.4 343.4 133.7 343.2 133.6 C 343 133.5 343 133.3 342.6 133.1 C 342.2 132.9 341.4 133.2 341.4 133.2 L 340.6 133.3 L 339.6 134.4 C 339.6 134.4 341.8 134.6 342.1 135 C 342.3 135.3 343.5 136.3 343.5 136.3 C 343.5 136.3 345.1 136.7 345.5 136.8 C 345.9 136.8 347.7 136.9 348 137 Z" stroke="none" stroke-width="1" stroke-dasharray="" stroke-dashoffset="1" fill="#E3DED1" fill-opacity="1"/><path d=" M 345.3 92.3 C 345.1 92.1 344.4 92.1 344.4 92.1 L 343.6 92.4 L 343.2 92.2 L 342.3 93.4 C 342.3 93.4 342.5 94.8 342.8 94.8 C 343.1 94.8 343.9 94.8 343.9 94.8 L 344.8 94.2 L 345.3 93 C 345.3 93 345.6 92.5 345.3 92.3 Z" stroke="none" stroke-width="1" stroke-dasharray="" stroke-dashoffset="1" fill="#E3DED1" fill-opacity="1"/><path d=" M 358.2 89.1 L 358.7 88.1 C 358.7 88.1 358.9 87.1 359 86.9 C 359.1 86.7 359.4 85.9 359.2 85.5 C 359 85.1 359.1 84.5 359 84.2 C 358.8 83.9 358.8 83.4 358.8 83.4 L 358 83.7 C 357.7 84 357.2 85.5 357.2 85.5 C 357.2 85.5 356.9 86.9 357.1 87.3 C 357.3 87.6 358 88.5 358 88.5 L 358.2 89.1 Z" stroke="none" stroke-width="1" stroke-dasharray="" stroke-dashoffset="1" fill="#E3DED1" fill-opacity="1"/><path d=" M 369.2 112.8 C 369.1 112.5 368.9 110.8 368.7 110.2 C 368.5 109.6 369.7 109.1 368.5 108.1 C 367.3 107.1 367.4 107.2 367.3 107.1 C 367.2 107 367.2 106.2 367.2 106.2 C 367.2 106.2 367.4 105.4 367.3 105.2 C 367.1 105 367 104.5 366.8 104.2 C 366.6 104 366.6 103.9 366.2 103.9 C 365.7 103.9 365.7 103.3 365.4 103.4 C 365.1 103.5 364.3 104.1 364.8 103.2 C 365.4 102.2 365 102.1 365 101.9 C 365 101.7 364.6 101.5 364.2 101.4 C 363.8 101.3 363.5 100.8 362.9 101 C 362.3 101.2 362.1 100.8 361.8 100.8 C 361.5 100.8 361.3 100.4 361.2 99.9 C 361.1 99.4 361.3 98.5 361.3 98.2 C 361.3 98 361.8 97.2 361.8 97.2 C 361.8 97.2 362 96.9 361.8 96.3 C 361.6 95.7 361.3 94.8 361.3 94.4 C 361.3 94 360.4 93.6 360.4 93.6 L 359.4 94 L 359 97.5 C 359 97.5 358.3 97.7 358.4 98.1 C 358.5 98.4 358.5 99.9 358.9 100.3 C 359.3 100.6 359.9 101 359.9 101 C 360.1 101.4 359.7 102.2 359.7 102.2 C 359.7 102.2 360.7 103.3 360.7 103.6 C 360.8 103.9 361.3 103.8 361.3 103.8 C 361.3 103.8 361.1 101.6 361.5 102 C 362 102.4 363.3 102.3 363.3 102.8 C 363.4 103.3 364.3 103.8 364.4 104.2 C 364.6 104.7 365.6 104.8 365.5 105.2 C 365.4 105.6 364.8 105.6 364.4 105.7 C 364 105.8 362.7 104.8 362.7 104.8 C 362.7 104.8 362.4 104.7 362.3 105.2 C 362.2 105.7 362.5 106.9 362.8 107.3 C 363.1 107.7 363.4 107.3 363.6 107.5 C 363.8 107.7 363.6 108.3 363.8 108.6 C 364 108.9 364.7 109 364.9 108.8 C 365.1 108.6 365.9 108.2 365.9 108.2 C 365.9 108.2 365.8 107.2 365.5 107.1 C 365.2 106.9 364.7 106.5 364.9 106.2 C 365.1 106 365.6 105.5 365.9 105.6 C 366.1 105.7 366.7 106.7 366.6 107 C 366.5 107.2 366.6 107.3 366.9 108.2 C 367.2 109.1 367.4 108.9 367 109.1 C 366.6 109.3 366.2 109.7 366 109.9 C 365.9 109.9 365.9 110 365.9 110 C 365.8 110 365.7 110 365.3 109.9 C 364.3 109.8 364.5 109.3 364.3 109.8 C 364.1 110.3 363.8 110.7 363.8 110.7 L 363.2 110.9 C 363.2 110.9 362.8 112.2 362.9 112.6 L 363 113 C 363 113 363.8 111.5 364 111.5 C 364.2 111.5 364.2 111.9 364.6 111.7 C 364.9 111.5 365.2 111.6 365.2 111.6 C 365.2 111.6 365.7 111.4 365.6 112 C 365.5 112.6 365.5 112.7 365.8 113.4 C 366 114 366.7 114.4 366.9 114.6 C 367.1 114.8 367.5 115 367.6 115.2 C 367.8 115.4 367.8 114.5 367.8 113.8 C 367.7 113.2 367.4 112.7 368.1 112.9 L 368.1 112.9 C 369 113.3 369.2 113.2 369.2 112.8 Z" stroke="none" stroke-width="1" stroke-dasharray="" stroke-dashoffset="1" fill="#E3DED1" fill-opacity="1"/><path d=" M 362.7 122.7 L 362.7 122.7 C 363.6 123.2 364.1 123.4 364.8 123.7 C 365.5 123.9 366.2 123.2 366.4 123.4 C 366.6 123.6 367.3 122.8 367.3 122.8 C 367.3 122.8 367.9 122 367.8 121.8 C 367.7 121.6 367.6 120.8 367.5 121.1 C 367.3 121.3 365.8 122.2 365.5 122.3 C 365.2 122.4 364.4 122.1 363.7 122.1 C 363 122.1 361.2 121.5 361 121.8 C 360.8 122 360 123 360.1 123.4 C 360.2 123.8 360.1 124 360.1 124.3 C 360.1 124.5 359.9 125.7 359.9 125.3 L 358.8 128.2 C 358.8 128.2 359.7 130.4 359.6 130.8 C 359.5 131.2 359.4 133.4 359.6 133.2 C 359.8 133 361 132.8 361 132.8 C 361 132.8 361.4 131.4 361.3 130.7 C 361.2 130.1 360.5 128.1 361.1 128.2 C 361.7 128.4 362.4 129.2 362.4 129.2 C 362.4 129.2 361.9 129.7 362.1 130 C 362.3 130.3 362.8 130.7 362.7 131.4 C 362.6 132.1 362.9 132.4 362.9 132.2 C 362.9 132 363.7 132.4 363.8 132.5 C 363.9 132.6 364.6 132 364.7 132 C 364.7 132.1 364.7 132.1 364.7 132 C 364.7 132 364.7 132 364.7 132 C 364.7 132 364.7 132 364.7 132 C 364.7 131.8 364.8 130.8 364.6 130.5 C 364.4 130.2 364.4 129.7 363.8 129.1 C 363.2 128.5 364 128.3 363.4 127.6 C 362.8 126.9 362.6 127.1 362.8 126.9 C 363 126.7 363.5 126.5 363.9 126.3 C 364.3 126.1 364.6 125.4 364.6 125.4 C 364.7 125.2 364.8 125.2 364.2 125.1 C 363.6 124.9 363 124.8 362.6 125.3 C 362.2 125.8 361.8 125.9 361.8 125.9 C 361.8 125.9 361.8 125.9 361.5 126 C 361.2 126.1 361.3 125.5 361 125.4 C 360.8 125.3 360.8 125.2 360.6 124.7 C 360.4 124.1 360.6 123.3 360.8 123.1 C 361.3 122.8 361.8 122.2 362.7 122.7 Z" stroke="none" stroke-width="1" stroke-dasharray="" stroke-dashoffset="1" fill="#E3DED1" fill-opacity="1"/><path d=" M 396 132 C 395.9 131.5 395.8 131 395.6 130.6 C 395.4 130.2 390.2 127.5 389.5 127.3 C 388.9 127.1 385.5 126 385.5 126 C 385.5 126 383.9 126.6 383.9 126.9 C 383.9 127.1 383.1 128 382.8 128.3 C 382.5 128.6 382.6 128.9 382.1 128.9 C 381.6 128.8 381.5 128.9 381.3 128.7 C 381.1 128.5 380.8 127.7 380.5 127.4 C 380.2 127.2 379.5 126.8 379.7 126.2 C 379.9 125.6 380.1 124.7 379.6 124.7 C 379.1 124.7 378.4 125 378.2 124.8 C 378 124.6 377.1 124.6 377.1 124.6 L 375.1 125.2 L 374.9 125.3 C 374.9 125.3 375.8 127 376.3 126.8 C 376.9 126.6 377.9 127.9 377.9 127.9 C 377.9 127.9 377.6 128.6 377.7 128.9 C 377.9 129.1 378.5 130.3 378.5 130.3 L 379.8 130.2 L 381.1 130.8 L 384.5 131.9 L 385.5 133 L 386.1 135.4 C 386.1 135.4 384.7 136.4 384.7 136.8 C 384.8 137.2 386.5 136.7 386.5 136.7 L 387.9 137.4 L 389.6 138.3 L 391.6 138.4 L 392.8 137 C 392.8 137 394.6 135.5 394.6 135.8 C 394.6 136.1 396.2 136.8 396.4 137.5 C 396.6 138.2 398.1 139.5 398.1 139.5 C 398.1 139.5 400.1 140.1 400.3 140.2 C 400.5 140.3 401.1 140.4 401.7 140.5 C 402.3 140.7 401.1 139.1 401.1 139.1 C 401.1 139.1 399.3 138.1 399.3 137.7 C 399.2 137.3 397.8 136.1 397.9 135.7 C 398 135.3 397.3 134.8 397.6 134.8 C 397.9 134.8 399.2 134.6 399 134.4 C 398.8 134.2 398 132.6 397.6 132.6 C 397.3 132.5 396.1 132.5 396 132 Z" stroke="none" stroke-width="1" stroke-dasharray="" stroke-dashoffset="1" fill="#E3DED1" fill-opacity="1"/><path d=" M 398.7 159 L 398.7 159 C 398.7 159 397.8 158.6 397.7 158.8 C 397.6 159 397.3 157.3 397.3 157.3 L 397.5 156.4 C 397.5 156.4 395.1 153.4 395 153.6 C 394.9 153.8 394.1 151.1 394.1 151.1 L 393.9 148.2 L 393.3 146.4 L 391.9 146.6 L 391.6 143.7 L 390.8 141 L 390.4 140.8 L 389.6 142.6 C 389.6 142.6 389.2 145.2 389 146 C 388.8 146.9 388.8 148.2 388.3 148.9 C 387.8 149.7 386.7 151.6 386.7 151.6 C 386.7 151.6 385.4 151.6 385.3 151.4 C 385.1 151.2 383.7 150.4 383.7 150.4 L 382.8 149 L 381.4 147.9 C 381.4 147.9 380.4 146.7 380.4 146.8 C 380.3 146.9 381.1 145.7 381.4 145.5 C 381.6 145.3 381.7 144.5 381.7 144.5 L 383 143.5 C 383 143.5 383.2 143.1 383 142.9 C 382.8 142.7 382.8 142.3 382.4 142.2 C 382.1 142.1 380.2 143 380.2 143 L 378.7 142.3 C 378.7 142.3 377.6 141.7 377.3 141.3 C 377.1 140.9 376.4 140.7 376.3 140.8 C 376.1 141 376.3 141.8 376.3 141.8 C 376.3 141.8 376.6 142.5 376.7 142.7 C 376.6 142.6 376 143 376 143 L 374.5 143.2 L 373.5 144.1 L 372.8 145.5 L 372.3 146.5 C 372.3 146.5 372.7 147.1 372.5 147.1 C 372.3 147 370.2 147.7 370.2 147.7 C 370.2 147.7 369.6 146.5 369.4 146.3 C 369.2 146.1 368.4 145.7 368.1 145.7 C 367.8 145.7 367 146.4 367 146.4 L 366.7 148.1 L 365.5 147.8 L 364.5 149.6 L 363.5 150 L 362.9 151.2 L 362.6 149.9 L 361.4 151 L 361 152.8 C 361 152.8 359.5 154.2 359.3 154.6 C 359.1 154.9 355.8 156.1 355.8 156.1 L 353.7 156.8 C 353.7 156.8 352.6 157 352.3 157 C 352.1 157 350 158.5 350 158.5 L 349.3 159.2 L 349.1 158.6 L 348.2 159.6 L 348.2 161.6 L 347.3 162.8 L 347.8 164.6 L 347.1 164.8 L 346.5 165.3 L 347.2 166.7 L 347.4 169.3 C 347.4 169.3 347.8 170.1 347.7 170.6 C 347.6 171.1 347.3 171.6 347.3 171.9 C 347.3 172.2 347.5 173.4 347.5 173.7 C 347.5 174 346.8 176.1 346.8 176.1 L 345.9 177.5 L 345.2 177.6 C 345.2 177.6 345.4 179.1 345.6 179.1 C 345.8 179.1 346.6 179.4 347.2 179.7 C 347.8 179.9 348.9 179.5 349.1 179.5 C 349.3 179.4 351.1 178.5 351.1 178.5 C 351.1 178.5 352.1 177.8 352.5 177.9 C 352.8 178 354.3 177.7 354.5 177.9 C 354.7 178.1 356.6 178 356.6 178 L 357.7 176.8 L 360.7 175.4 L 362.2 175.2 L 365.9 174.2 L 369 174.5 C 369 174.5 371.6 176.4 371.6 176.3 C 371.6 176.1 372.2 177.3 372.2 177.3 L 372 178.8 C 372 178.8 372.9 179.5 373 179.3 C 373.1 179.1 374 178.1 374.2 177.9 C 374.4 177.7 375.2 177.3 375.7 176.9 C 376.3 176.5 376.4 176.3 376.4 176.3 C 376.4 176.3 375.8 177.9 375.6 177.9 C 375.4 177.9 374.9 178.4 374.6 178.7 C 374.4 179 374 179.3 374 179.4 C 374 179.6 374.5 179.6 374.7 179.4 C 374.9 179.2 375.3 178.8 375.7 178.6 C 376 178.4 376.2 178.5 376.1 178.9 C 376 179.3 376 179.7 375.7 179.9 C 375.4 180.1 375 180.3 374.4 180.6 C 373.8 180.9 373.4 180.7 373.2 180.9 C 373 181.1 373.4 181.4 373.5 181.5 C 373.7 181.7 374.1 182.1 374.4 181.6 C 374.7 181 375.1 180.6 375.4 180.5 C 375.6 180.3 376.1 179.9 376.1 180.3 C 376.1 180.7 376.3 181.1 376.4 181.4 C 376.5 181.7 375.8 182.4 375.9 182.5 C 376 182.7 376.8 184.4 376.8 184.4 C 376.8 184.4 377.3 185 377.8 185 C 378.4 185 379.6 185.4 379.8 185.5 C 380 185.6 381.2 185.5 381.3 185.2 C 381.5 184.9 382.4 184.2 382.3 184.5 C 382.2 184.7 382.4 185.2 382.6 185.5 C 382.8 185.7 383.2 186.4 383.2 186.4 L 386.1 184.1 C 386.1 184.1 388.3 183.6 388.4 183.9 C 388.5 184.1 389.9 182.3 389.9 182.3 L 394.4 176.7 L 396.2 175.5 L 397.5 173.7 L 399.3 170.5 L 400.3 166.9 L 401 164.2 L 399.2 161.6 L 398.7 159 Z" stroke="none" stroke-width="1" stroke-dasharray="" stroke-dashoffset="1" fill="#E3DED1" fill-opacity="1"/><path d=" M 381 188.7 C 381 188.7 379.9 188 379.7 187.7 L 379.7 187.5 L 379 190 L 378.3 192.6 C 378.3 192.6 379.7 192.8 379.9 192.8 C 380.1 192.9 382.5 191.4 382.5 191.1 C 382.6 190.8 384.2 188.2 384.2 188.2 C 384.2 188.2 381.6 188.8 381 188.7 Z" stroke="none" stroke-width="1" stroke-dasharray="" stroke-dashoffset="1" fill="#E3DED1" fill-opacity="1"/><path d=" M 424.2 184.1 L 423.4 183.3 C 423.4 183.3 423.5 182.2 423.2 182.2 C 423 182.2 422.6 182.3 422.6 182.3 L 423 179.5 L 421.6 178.6 L 421.3 182.9 L 420.3 185.3 L 418.2 186.1 C 418.2 186.1 419.1 187 419.4 187 C 419.7 187 419.2 188 419.2 188 L 417.8 189.2 C 417.8 189.2 417.3 189 417.3 188.3 C 417.3 187.7 416 188.9 416 188.9 L 415.1 188.3 L 412.7 190.4 L 409.4 192.1 L 401.8 196.8 L 402.8 197.4 C 402.8 197.4 403.8 197.8 403.8 198 C 403.9 198.2 406.2 197 406.2 197 L 408.8 195.1 L 410.1 194 C 410.1 194 412.4 193.4 412.3 193.7 C 412.2 194 413 192.2 413 192.2 L 415.2 191 L 416.6 189.6 L 417.7 189.9 L 419.3 189.3 L 422 187.5 L 422.5 186.1 L 423.4 186.2 L 425.1 185 L 426.2 183.1 L 424.2 184.1 Z" stroke="none" stroke-width="1" stroke-dasharray="" stroke-dashoffset="1" fill="#E3DED1" fill-opacity="1"/><path d=" M 103.2 9.4 C 103.8 9.6 104.2 9.7 105.6 9.8 C 107 9.9 107.1 9.7 107.8 10 C 108.4 10.2 109 10.6 109.2 10.1 C 109.4 9.5 109.8 9.5 110 9.2 C 110.2 8.9 110 8.6 110.4 8.4 C 110.8 8.2 111.5 9 111.5 9 C 111.5 9 110.6 9.6 111 9.6 C 111.4 9.7 112.5 9.9 113.1 10 C 113.7 10.1 113.2 10.2 114.1 10.3 C 115.1 10.4 115.5 10.2 116.6 10.2 C 117.8 10.2 118.5 9.6 118.9 9.8 C 119.3 10 120.7 10 121 9.9 C 121.4 9.8 122.4 8.9 122 8.9 C 121.6 8.9 120.1 8.5 119.5 8.4 C 118.9 8.3 116.9 8.2 116.4 8.5 C 115.9 8.7 115.4 8.9 115 8.7 C 114.7 8.5 116.4 7.3 117.5 7.4 C 118.6 7.6 120.3 7.2 120.8 7.3 C 121.4 7.4 122.7 7.6 122.7 7.6 C 122.7 7.6 123 7.4 123.1 7.2 C 123.2 7 123.3 6.7 123.3 6.7 L 124.1 7.4 C 124.1 7.4 129.4 5.3 129.6 4.9 C 129.8 4.5 133.2 3.5 133.7 3.5 C 134.2 3.6 137.4 2.1 138 2.4 C 138.5 2.6 141.5 1.7 141.5 1.7 C 141.5 1.7 143.7 1.2 144.1 1.2 C 144.6 1.2 144.8 0.6 144.1 0.7 C 143.4 0.8 137.4 0.8 136 0.7 C 134.6 0.6 131.1 0.7 130.5 0.8 C 129.9 0.9 126.8 1.8 125.4 1.7 C 124 1.6 119.7 2.3 119.4 2.2 C 119.2 2.1 117.4 2 117.6 2 C 117.8 2 115.3 4 114.9 3.4 C 114.5 2.8 114.9 2.4 114.5 2.8 C 114.1 3.2 114.2 5 114.2 5 C 114.7 5.3 115.7 6.4 116.4 6 C 117.1 5.5 117.5 5.8 117.8 5.8 C 118 5.9 116.7 6.9 115.9 6.9 C 115.1 6.9 112.6 7.9 112.6 7.9 C 112.6 7.9 111.5 6.9 111.2 6.8 C 111 6.7 109.6 6.6 109.4 6.6 C 109.2 6.6 108.8 6.4 108.8 7.1 C 108.8 7.8 108.9 8.9 108.1 8.8 C 107.3 8.6 107.1 9 106.7 8.7 C 106.3 8.5 107.3 7.3 106.1 7.2 C 105 7.1 104.3 6.3 103.7 7.6 C 102.9 9.1 102.5 9.1 103.2 9.4 Z" stroke="none" stroke-width="1" stroke-dasharray="" stroke-dashoffset="1" fill="#E3DED1" fill-opacity="1"/><path d=" M 74.3 14.3 C 74.1 14.7 76.4 14.9 76.5 14.5 C 76.7 14.2 78.1 14.4 78.4 13.9 C 78.7 13.4 80.3 12.5 80.5 12.6 C 80.7 12.8 80 13.6 79.8 13.6 C 79.6 13.7 80.6 13.8 79.6 14.6 C 78.6 15.4 78.8 16.1 78.8 16.1 C 78.8 16.1 77.9 16.5 78.6 16.7 C 79.2 16.9 80.4 17.4 80.4 17.4 C 80.4 17.4 80.5 18 80.5 18.1 C 80.5 18.3 80.9 18.7 81.8 18.2 C 82.7 17.6 84.4 17 84.7 17.2 C 84.9 17.4 85.5 17.1 86.3 17 C 87.1 16.9 87.7 16.7 87.7 16.7 L 88.7 16.9 C 89.2 17.1 89.6 16.6 90.4 17.1 C 91.2 17.6 92.3 17.6 92.3 17.6 C 92.3 17.6 93.4 16.7 93.7 16.6 C 93.9 16.5 94.4 16.4 94.2 15.9 C 94 15.3 93.1 14.5 93.3 14.3 C 93.5 14.1 94.1 14 94 12.5 C 93.9 11 94.2 11.2 93.8 11.3 C 93.4 11.4 92.4 11.9 92.4 11.9 L 92.1 11.8 C 91.9 12.3 91.2 12.6 91.1 13.1 C 90.9 13.6 90.5 13.8 90.5 13.4 C 90.5 13 89.9 12.9 89.9 12.6 C 89.8 12.3 89.1 12.4 88.7 12.4 C 88.3 12.5 87.2 11.7 86.8 12 C 86.4 12.3 86 11.8 85.7 11.1 C 85.4 10.4 85 9.8 84.5 9.9 C 84 10 81.1 9.9 81.1 9.9 L 79.3 10.1 C 79.3 10.1 78.3 10.3 78.3 10.8 C 78.3 11.3 78.1 11.6 77.7 11.8 C 77.2 12 73.7 13.2 73.7 13.2 C 73.7 13.2 74.6 13.9 74.3 14.3 Z" stroke="none" stroke-width="1" stroke-dasharray="" stroke-dashoffset="1" fill="#E3DED1" fill-opacity="1"/><path d=" M 99.3 12.4 L 98.4 12.2 C 98.4 12.2 98.3 11.6 98.1 11.6 C 97.9 11.6 97.1 12.5 97.1 12.5 C 97.1 12.5 98.1 12.9 98.3 13.2 C 98.5 13.5 98.9 13.9 98.9 14.2 C 98.9 14.4 101.5 13.4 101.5 13.4 L 102.9 12.7 C 102.9 12.7 103 12.9 103.1 12.5 C 103.2 12.1 102.9 11.8 103.1 11.7 C 103.3 11.6 103.9 10.6 103.3 10.7 C 102.7 10.9 101.3 10.7 100.7 10.9 C 100.1 11.1 99.3 10.6 99.3 11.2 C 99.4 11.8 99.3 12.4 99.3 12.4 Z" stroke="none" stroke-width="1" stroke-dasharray="" stroke-dashoffset="1" fill="#E3DED1" fill-opacity="1"/><path d=" M 86.6 8.7 C 86.6 8.7 86.9 10.1 87.6 9.7 C 88.2 9.3 90.1 10.7 90.1 10.8 C 90.1 11 90.7 10.9 90.7 10.9 L 93.5 9.9 L 95 9.7 C 95 9.7 96.5 9.6 96.7 9.8 C 96.9 10 98.1 9.4 98.1 9.4 L 98.6 8.6 L 97.6 8.3 L 97.8 7.5 C 97.8 7.5 97.5 7 96.8 7.6 C 96.1 8.2 94.1 9.3 94.2 9 C 94.4 8.7 93.4 9 93 8.6 C 92.6 8.1 92 8 92 8 C 92 8 91 7.6 90.6 7.8 C 90.2 7.9 91.3 7 91.3 7 C 91.3 7 91.5 6.1 91.1 6.2 C 90.6 6.3 86.7 7.2 86.7 7.2 C 86.7 7.2 85 8.2 84.7 7.9 C 84.4 7.6 83.2 8 83.2 8 L 84 8.5 C 84.2 8.2 86.6 8.7 86.6 8.7 Z" stroke="none" stroke-width="1" stroke-dasharray="" stroke-dashoffset="1" fill="#E3DED1" fill-opacity="1"/><path d=" M 106.7 6.2 C 106.9 6.3 107.7 6.4 108 6.4 C 108.3 6.3 109.6 5.7 109.1 5.4 C 108.6 5.2 107.1 4.8 106.8 4.7 C 106.5 4.5 105.3 4.5 105.3 4.5 L 104.6 4.7 C 104.4 4.9 104.1 5.5 104.4 5.6 C 104.6 5.5 106.5 6.1 106.7 6.2 Z" stroke="none" stroke-width="1" stroke-dasharray="" stroke-dashoffset="1" fill="#E3DED1" fill-opacity="1"/><path d=" M 96.7 6.8 C 97 6.6 98.1 6.2 98.1 6.2 L 99.1 5.4 L 99.4 5 C 99.4 5 98.7 4.4 98.4 4.6 C 98.1 4.8 96.4 5.6 96.4 5.6 L 96.3 6.2 L 95 6.7 C 95 6.7 96.4 7 96.7 6.8 Z" stroke="none" stroke-width="1" stroke-dasharray="" stroke-dashoffset="1" fill="#E3DED1" fill-opacity="1"/><path d=" M 111 6.6 C 111.3 6.7 112.3 6.7 112.4 6.4 C 112.5 6.2 112.3 4.5 112.3 4.5 C 112.3 4.5 112 4 111.6 4.1 C 111.2 4.2 109.9 4.8 109.9 4.8 C 109.8 5.1 110.7 6.5 111 6.6 Z" stroke="none" stroke-width="1" stroke-dasharray="" stroke-dashoffset="1" fill="#E3DED1" fill-opacity="1"/><path d=" M 90.9 91.5 C 90.8 91.3 89.9 91 89.5 91 C 89 91 87.3 89.3 87.2 89 C 87.1 88.6 83.2 87.7 83.2 87.7 C 83.2 87.7 79 87.5 79 87.3 C 79 87.2 77 88.9 77 88.9 L 77 89.1 C 77 89.1 77.2 89.9 77.2 90.1 C 77.3 90.3 78.6 89.1 78.7 88.7 C 78.8 88.2 79.8 88.1 80 88 C 80.2 87.9 80.4 88.5 80.6 88.5 C 80.8 88.5 81.9 88.9 81.9 88.9 L 84.1 89.6 L 84.9 90.4 C 84.9 90.4 85.3 92.3 85.3 92.6 C 85.3 92.8 86.9 92.7 86.9 92.7 L 90.1 92.4 C 90 92.3 91 91.7 90.9 91.5 Z" stroke="none" stroke-width="1" stroke-dasharray="" stroke-dashoffset="1" fill="#E3DED1" fill-opacity="1"/><path d=" M 90.8 95.5 C 91.1 95.6 91.6 95.4 91.8 95.4 C 92 95.4 92.8 95.2 92.8 95.2 C 92.8 95.2 93 95.7 93 95.9 C 93 96.1 94.3 95.8 94.3 95.7 C 94.3 95.6 94.6 95 94.6 95 L 96.1 94.7 C 96.1 94.7 98.1 94.8 98.3 94.8 C 98.5 94.8 98.6 94.4 98.2 93.8 C 97.8 93.1 96.8 93 96.6 92.5 C 96.4 92 95.2 92.3 94.9 92.5 C 94.6 92.7 92.9 92.1 92.5 92.1 C 92 92.1 92.5 92.6 92.5 92.6 L 92.3 94.3 L 90.3 94.3 L 90.2 94.5 C 90.2 94.5 89.7 94.7 89.7 95 C 89.8 95.5 90.5 95.4 90.8 95.5 Z" stroke="none" stroke-width="1" stroke-dasharray="" stroke-dashoffset="1" fill="#E3DED1" fill-opacity="1"/><path d=" M 77.2 76.3 L 77.3 76.2 L 77.3 76.2 Z" stroke="none" stroke-width="1" stroke-dasharray="" stroke-dashoffset="1" fill="#E3DED1" fill-opacity="1"/><path d=" M 76.3 76.3 L 76.5 76.2 L 76.5 76.2 Z" stroke="none" stroke-width="1" stroke-dasharray="" stroke-dashoffset="1" fill="#E3DED1" fill-opacity="1"/><path d=" M 76.7 76.2 L 76.8 76.2 L 76.8 76 L 76.6 76 L 76.5 76.2 Z" stroke="none" stroke-width="1" stroke-dasharray="" stroke-dashoffset="1" fill="#E3DED1" fill-opacity="1"/><path d=" M 73 76.2 L 73.5 76.2 L 73.9 76.2 L 74 76 L 74.2 76.2 L 74.3 75.9 L 74.3 75.9 L 73.5 75.8 Z" stroke="none" stroke-width="1" stroke-dasharray="" stroke-dashoffset="1" fill="#E3DED1" fill-opacity="1"/><path d=" M 81.3 81.2 L 81.4 81.2 L 81.3 81.1 Z" stroke="none" stroke-width="1" stroke-dasharray="" stroke-dashoffset="1" fill="#E3DED1" fill-opacity="1"/><path d=" M 82 82.7 L 82.1 82.8 L 82.1 82.8 L 82 82.6 Z" stroke="none" stroke-width="1" stroke-dasharray="" stroke-dashoffset="1" fill="#E3DED1" fill-opacity="1"/></g></svg>