<svg version="1.1" width="57.2" height="24.6" viewBox="0 0 57.2 24.6" xmlns="http://www.w3.org/2000/svg" xmlns:xlink="http://www.w3.org/1999/xlink" overflow="hidden"><defs></defs><g><path d=" M 53.4 8.7 L 53.7 6.3 L 52.2 6 L 53.6 4.6 L 45.4 4.3 L 37 3.1 C 37 3.1 35.2 3.1 25.9 1.1 C 16.6 -0.9 5.8 1.6 5.8 1.6 L 0.4 4.9 L 2.1 5.2 L 3.3 7 L 2.9 12.3 L 5.1 12 L 4.6 14.3 L 4.8 16.5 L 35.5 19.5 L 35.7 19.5 L 36 19.5 L 36.4 19.7 L 36.4 19.8 L 36.5 19.9 L 36.6 19.9 L 36.9 20 L 36.9 20.1 L 37.2 20.1 L 37.3 20.3 L 37.4 20.2 L 37.6 20.2 L 37.7 20.2 L 38 20.2 L 38.4 20.4 L 38.5 20.4 L 38.6 20.7 L 39.1 20.8 L 39.4 20.9 L 39.5 21.2 L 39.8 21.2 L 40.2 21.2 L 40.5 21.1 L 40.6 21.2 L 40.7 21.4 L 41.2 21.4 L 41.3 21.5 L 41.6 21.6 L 41.9 21.7 L 47 24 L 50.5 15.8 L 56.7 9.7 L 55.3 8.4 L 53.4 8.7 Z" stroke="#FFFFFF" stroke-width="0.7777" stroke-linejoin="round" stroke-miterlimit="10" stroke-dasharray="" stroke-dashoffset="1" stroke-opacity="1" fill="#92D050" fill-opacity="0.631373"/></g></svg>